<svg version="1.1" xmlns="http://www.w3.org/2000/svg" xmlns:xlink="http://www.w3.org/1999/xlink" width="575" height="420"><defs/><g><g transform="translate(-22,-166) scale(1,1)"><path fill="#ffffff" stroke="none" d="M 249.82072727272728 185.68 C 249.82072727272728 180.886167936 253.7065695976727 177 258.5 177 C 263.29343040232726 177 267.17927272727275 180.886167936 267.17927272727275 185.68 C 267.17927272727275 190.47383206400002 263.29343040232726 194.36 258.5 194.36 C 253.7065695976727 194.36 249.82072727272728 190.47383206400002 249.82072727272728 185.68 Z"/></g><g transform="translate(-22,-166) scale(1,1)"><path fill="none" stroke="#000000" d="M 249.82072727272728 185.68 C 249.82072727272728 180.886167936 253.7065695976727 177 258.5 177 C 263.29343040232726 177 267.17927272727275 180.886167936 267.17927272727275 185.68 C 267.17927272727275 190.47383206400002 263.29343040232726 194.36 258.5 194.36 C 253.7065695976727 194.36 249.82072727272728 190.47383206400002 249.82072727272728 185.68 Z" stroke-miterlimit="10"/></g><g transform="translate(-22,-166) scale(1,1)"><path fill="none" stroke="#000000" d="M 258.5 194.36 L 258.5 211.64" stroke-miterlimit="10"/></g><g transform="translate(-22,-166) scale(1,1)"><path fill="none" stroke="#000000" d="M 249.31018181818183 200.84 L 267.68981818181817 200.84" stroke-miterlimit="10"/></g><g transform="translate(-22,-166) scale(1,1)"><path fill="none" stroke="#000000" d="M 258.5 211.64 L 245.73636363636365 229" stroke-miterlimit="10"/></g><g transform="translate(-22,-166) scale(1,1)"><path fill="none" stroke="#000000" d="M 258.5 211.64 L 271.26363636363635 229" stroke-miterlimit="10"/></g><g transform="translate(-22,-166) scale(1,1)"><g><path fill="none" stroke="none"/><text fill="#000000" stroke="none" font-family="Arial" font-size="14px" font-style="normal" font-weight="bold" text-decoration="none" x="244.5" y="250.5">用户</text></g></g><g transform="translate(-22,-166) scale(1,1)"><path fill="#C0C0C0" stroke="none" d="M 239 328.5 C 239 318.835016 259.5948992 311 285 311 C 310.4051008 311 331 318.835016 331 328.5 C 331 338.164984 310.4051008 346 285 346 C 259.5948992 346 239 338.164984 239 328.5 Z" opacity="0.2"/></g><g transform="translate(-22,-166) scale(1,1)"><path fill="#ffffff" stroke="none" d="M 232 321.5 C 232 311.835016 252.5948992 304 278 304 C 303.4051008 304 324 311.835016 324 321.5 C 324 331.164984 303.4051008 339 278 339 C 252.5948992 339 232 331.164984 232 321.5 Z"/></g><g transform="translate(-22,-166) scale(1,1)"><path fill="none" stroke="#000000" d="M 232 321.5 C 232 311.835016 252.5948992 304 278 304 C 303.4051008 304 324 311.835016 324 321.5 C 324 331.164984 303.4051008 339 278 339 C 252.5948992 339 232 331.164984 232 321.5 Z" stroke-miterlimit="10"/></g><g transform="translate(-22,-166) scale(1,1)"><g><path fill="none" stroke="none"/><text fill="#000000" stroke="none" font-family="Arial" font-size="14px" font-style="normal" font-weight="bold" text-decoration="none" x="250" y="329">用户管理</text></g></g><g transform="translate(-22,-166) scale(1,1)"><path fill="none" stroke="#000000" d="M 266 257 L 275 303" stroke-miterlimit="10"/></g><g transform="translate(-22,-166) scale(1,1)"><path fill="none" stroke="#000000" d="M 268.9174586691555 293.83470180743865 L 275 303 L 277.1798382816694 292.21814927455546" stroke-miterlimit="10"/></g><g transform="translate(-22,-166) scale(1,1)"><path fill="#ffffff" stroke="none" d="M 144.60002414772728 505.68 C 144.60002414772728 500.886167936 148.48586647267274 497 153.279296875 497 C 158.07272727732726 497 161.95856960227272 500.886167936 161.95856960227272 505.68 C 161.95856960227272 510.473832064 158.07272727732726 514.36 153.279296875 514.36 C 148.48586647267274 514.36 144.60002414772728 510.473832064 144.60002414772728 505.68 Z"/></g><g transform="translate(-22,-166) scale(1,1)"><path fill="none" stroke="#000000" d="M 144.60002414772728 505.68 C 144.60002414772728 500.886167936 148.48586647267274 497 153.279296875 497 C 158.07272727732726 497 161.95856960227272 500.886167936 161.95856960227272 505.68 C 161.95856960227272 510.473832064 158.07272727732726 514.36 153.279296875 514.36 C 148.48586647267274 514.36 144.60002414772728 510.473832064 144.60002414772728 505.68 Z" stroke-miterlimit="10"/></g><g transform="translate(-22,-166) scale(1,1)"><path fill="none" stroke="#000000" d="M 153.279296875 514.36 L 153.279296875 531.64" stroke-miterlimit="10"/></g><g transform="translate(-22,-166) scale(1,1)"><path fill="none" stroke="#000000" d="M 144.08947869318183 520.84 L 162.46911505681817 520.84" stroke-miterlimit="10"/></g><g transform="translate(-22,-166) scale(1,1)"><path fill="none" stroke="#000000" d="M 153.279296875 531.64 L 140.51566051136365 549" stroke-miterlimit="10"/></g><g transform="translate(-22,-166) scale(1,1)"><path fill="none" stroke="#000000" d="M 153.279296875 531.64 L 166.04293323863635 549" stroke-miterlimit="10"/></g><g transform="translate(-22,-166) scale(1,1)"><g><path fill="none" stroke="none"/><text fill="#000000" stroke="none" font-family="Arial" font-size="14px" font-style="normal" font-weight="bold" text-decoration="none" x="124.88623046875" y="570.5">虹软SDK</text></g></g><g transform="translate(-22,-166) scale(1,1)"><path fill="#C0C0C0" stroke="none" d="M 39 368.5 C 39 358.835016 62.9527632 351 92.5 351 C 122.04723680000001 351 146 358.835016 146 368.5 C 146 378.164984 122.04723680000001 386 92.5 386 C 62.9527632 386 39 378.164984 39 368.5 Z" opacity="0.2"/></g><g transform="translate(-22,-166) scale(1,1)"><path fill="#ffffff" stroke="none" d="M 32 361.5 C 32 351.835016 55.9527632 344 85.5 344 C 115.04723680000001 344 139 351.835016 139 361.5 C 139 371.164984 115.04723680000001 379 85.5 379 C 55.9527632 379 32 371.164984 32 361.5 Z"/></g><g transform="translate(-22,-166) scale(1,1)"><path fill="none" stroke="#000000" d="M 32 361.5 C 32 351.835016 55.9527632 344 85.5 344 C 115.04723680000001 344 139 351.835016 139 361.5 C 139 371.164984 115.04723680000001 379 85.5 379 C 55.9527632 379 32 371.164984 32 361.5 Z" stroke-miterlimit="10"/></g><g transform="translate(-22,-166) scale(1,1)"><g><path fill="none" stroke="none"/><text fill="#000000" stroke="none" font-family="Arial" font-size="14px" font-style="normal" font-weight="bold" text-decoration="none" x="71.5" y="369">注册</text></g></g><g transform="translate(-22,-166) scale(1,1)"><path fill="#C0C0C0" stroke="none" d="M 143 448.5 C 143 438.835016 172.3253456 431 208.5 431 C 244.6746544 431 274 438.835016 274 448.5 C 274 458.164984 244.6746544 466 208.5 466 C 172.3253456 466 143 458.164984 143 448.5 Z" opacity="0.2"/></g><g transform="translate(-22,-166) scale(1,1)"><path fill="#ffffff" stroke="none" d="M 136 441.5 C 136 431.835016 165.3253456 424 201.5 424 C 237.6746544 424 267 431.835016 267 441.5 C 267 451.164984 237.6746544 459 201.5 459 C 165.3253456 459 136 451.164984 136 441.5 Z"/></g><g transform="translate(-22,-166) scale(1,1)"><path fill="none" stroke="#000000" d="M 136 441.5 C 136 431.835016 165.3253456 424 201.5 424 C 237.6746544 424 267 431.835016 267 441.5 C 267 451.164984 237.6746544 459 201.5 459 C 165.3253456 459 136 451.164984 136 441.5 Z" stroke-miterlimit="10"/></g><g transform="translate(-22,-166) scale(1,1)"><g><path fill="none" stroke="none"/><text fill="#000000" stroke="none" font-family="Arial" font-size="14px" font-style="normal" font-weight="bold" text-decoration="none" x="159.5" y="449">关联人脸信息</text></g></g><g transform="translate(-22,-166) scale(1,1)"><path fill="#C0C0C0" stroke="none" d="M 351 456.5 C 351 446.835016 374.9527632 439 404.5 439 C 434.0472368 439 458 446.835016 458 456.5 C 458 466.164984 434.0472368 474 404.5 474 C 374.9527632 474 351 466.164984 351 456.5 Z" opacity="0.2"/></g><g transform="translate(-22,-166) scale(1,1)"><path fill="#ffffff" stroke="none" d="M 344 449.5 C 344 439.835016 367.9527632 432 397.5 432 C 427.0472368 432 451 439.835016 451 449.5 C 451 459.164984 427.0472368 467 397.5 467 C 367.9527632 467 344 459.164984 344 449.5 Z"/></g><g transform="translate(-22,-166) scale(1,1)"><path fill="none" stroke="#000000" d="M 344 449.5 C 344 439.835016 367.9527632 432 397.5 432 C 427.0472368 432 451 439.835016 451 449.5 C 451 459.164984 427.0472368 467 397.5 467 C 367.9527632 467 344 459.164984 344 449.5 Z" stroke-miterlimit="10"/></g><g transform="translate(-22,-166) scale(1,1)"><g><path fill="none" stroke="none"/><text fill="#000000" stroke="none" font-family="Arial" font-size="14px" font-style="normal" font-weight="bold" text-decoration="none" x="383.5" y="457">登录</text></g></g><g transform="translate(-22,-166) scale(1,1)"><path fill="#C0C0C0" stroke="none" d="M 295 552.5 C 295 542.835016 318.9527632 535 348.5 535 C 378.0472368 535 402 542.835016 402 552.5 C 402 562.164984 378.0472368 570 348.5 570 C 318.9527632 570 295 562.164984 295 552.5 Z" opacity="0.2"/></g><g transform="translate(-22,-166) scale(1,1)"><path fill="#ffffff" stroke="none" d="M 288 545.5 C 288 535.835016 311.9527632 528 341.5 528 C 371.0472368 528 395 535.835016 395 545.5 C 395 555.164984 371.0472368 563 341.5 563 C 311.9527632 563 288 555.164984 288 545.5 Z"/></g><g transform="translate(-22,-166) scale(1,1)"><path fill="none" stroke="#000000" d="M 288 545.5 C 288 535.835016 311.9527632 528 341.5 528 C 371.0472368 528 395 535.835016 395 545.5 C 395 555.164984 371.0472368 563 341.5 563 C 311.9527632 563 288 555.164984 288 545.5 Z" stroke-miterlimit="10"/></g><g transform="translate(-22,-166) scale(1,1)"><g><path fill="none" stroke="none"/><text fill="#000000" stroke="none" font-family="Arial" font-size="14px" font-style="normal" font-weight="bold" text-decoration="none" x="313.5" y="553">人像登录</text></g></g><g transform="translate(-22,-166) scale(1,1)"><path fill="#C0C0C0" stroke="none" d="M 431 544.5 C 431 534.835016 454.9527632 527 484.5 527 C 514.0472368 527 538 534.835016 538 544.5 C 538 554.164984 514.0472368 562 484.5 562 C 454.9527632 562 431 554.164984 431 544.5 Z" opacity="0.2"/></g><g transform="translate(-22,-166) scale(1,1)"><path fill="#ffffff" stroke="none" d="M 424 537.5 C 424 527.835016 447.9527632 520 477.5 520 C 507.0472368 520 531 527.835016 531 537.5 C 531 547.164984 507.0472368 555 477.5 555 C 447.9527632 555 424 547.164984 424 537.5 Z"/></g><g transform="translate(-22,-166) scale(1,1)"><path fill="none" stroke="#000000" d="M 424 537.5 C 424 527.835016 447.9527632 520 477.5 520 C 507.0472368 520 531 527.835016 531 537.5 C 531 547.164984 507.0472368 555 477.5 555 C 447.9527632 555 424 547.164984 424 537.5 Z" stroke-miterlimit="10"/></g><g transform="translate(-22,-166) scale(1,1)"><g><path fill="none" stroke="none"/><text fill="#000000" stroke="none" font-family="Arial" font-size="14px" font-style="normal" font-weight="bold" text-decoration="none" x="449.5" y="545">密码登录</text></g></g><g transform="translate(-22,-166) scale(1,1)"><path fill="none" stroke="#000000" d="M 414 468 L 461 519" stroke-miterlimit="10" stroke-dasharray="3"/></g><g transform="translate(-22,-166) scale(1,1)"><path fill="none" stroke="#000000" d="M 451.01745405681635 514.3795263779318 L 461 519 L 457.2084423005266 508.6741058396106" stroke-miterlimit="10"/></g><g transform="translate(-22,-166) scale(1,1)"><g><path fill="none" stroke="none"/><text fill="#000000" stroke="none" font-family="Arial" font-size="14px" font-style="normal" font-weight="normal" text-decoration="none" x="429.5" y="478.5">«include»</text></g></g><g transform="translate(-22,-166) scale(1,1)"><path fill="none" stroke="#000000" d="M 352 527 L 386 468" stroke-miterlimit="10" stroke-dasharray="3"/></g><g transform="translate(-22,-166) scale(1,1)"><path fill="none" stroke="#000000" d="M 384.5730427505288 478.907052443634 L 386 468 L 377.27853810678477 474.7034395980865" stroke-miterlimit="10"/></g><g transform="translate(-22,-166) scale(1,1)"><g><path fill="none" stroke="none"/><text fill="#000000" stroke="none" font-family="Arial" font-size="14px" font-style="normal" font-weight="normal" text-decoration="none" x="310.5" y="492.5">«extend»</text></g></g><g transform="translate(-22,-166) scale(1,1)"><path fill="none" stroke="#000000" d="M 174 495 L 191 460" stroke-miterlimit="10"/></g><g transform="translate(-22,-166) scale(1,1)"><path fill="none" stroke="#000000" d="M 190.3463826479041 470.9805639362029 L 191 460 L 182.7733915174903 467.3022539585733" stroke-miterlimit="10"/></g><g transform="translate(-22,-166) scale(1,1)"><path fill="#C0C0C0" stroke="none" d="M 463 368.5 C 463 358.835016 492.3253456 351 528.5 351 C 564.6746544 351 594 358.835016 594 368.5 C 594 378.164984 564.6746544 386 528.5 386 C 492.3253456 386 463 378.164984 463 368.5 Z" opacity="0.2"/></g><g transform="translate(-22,-166) scale(1,1)"><path fill="#ffffff" stroke="none" d="M 456 361.5 C 456 351.835016 485.3253456 344 521.5 344 C 557.6746544 344 587 351.835016 587 361.5 C 587 371.164984 557.6746544 379 521.5 379 C 485.3253456 379 456 371.164984 456 361.5 Z"/></g><g transform="translate(-22,-166) scale(1,1)"><path fill="none" stroke="#000000" d="M 456 361.5 C 456 351.835016 485.3253456 344 521.5 344 C 557.6746544 344 587 351.835016 587 361.5 C 587 371.164984 557.6746544 379 521.5 379 C 485.3253456 379 456 371.164984 456 361.5 Z" stroke-miterlimit="10"/></g><g transform="translate(-22,-166) scale(1,1)"><g><path fill="none" stroke="none"/><text fill="#000000" stroke="none" font-family="Arial" font-size="14px" font-style="normal" font-weight="bold" text-decoration="none" x="479.5" y="369">用户权限设置</text></g></g><g transform="translate(-22,-166) scale(1,1)"><path fill="none" stroke="#000000" d="M 231 331 L 140 350" stroke-miterlimit="10" stroke-dasharray="3"/></g><g transform="translate(-22,-166) scale(1,1)"><path fill="none" stroke="#000000" d="M 149.0877920170655 343.80225555104437 L 140 350 L 150.8085064891978 352.04357223336217" stroke-miterlimit="10"/></g><g transform="translate(-22,-166) scale(1,1)"><g><path fill="none" stroke="none"/><text fill="#000000" stroke="none" font-family="Arial" font-size="14px" font-style="normal" font-weight="normal" text-decoration="none" x="161.5" y="375.5">«include»</text></g></g><g transform="translate(-22,-166) scale(1,1)"><path fill="none" stroke="#000000" d="M 266 340 L 213 423" stroke-miterlimit="10" stroke-dasharray="3"/></g><g transform="translate(-22,-166) scale(1,1)"><path fill="none" stroke="#000000" d="M 214.92155586935033 412.1691356281705 L 213 423 L 222.01732282907884 416.700167542214" stroke-miterlimit="10"/></g><g transform="translate(-22,-166) scale(1,1)"><g><path fill="none" stroke="none"/><text fill="#000000" stroke="none" font-family="Arial" font-size="14px" font-style="normal" font-weight="normal" text-decoration="none" x="234.5" y="402.5">«include»</text></g></g><g transform="translate(-22,-166) scale(1,1)"><path fill="none" stroke="#000000" d="M 296 340 L 380 431" stroke-miterlimit="10" stroke-dasharray="3"/></g><g transform="translate(-22,-166) scale(1,1)"><path fill="none" stroke="#000000" d="M 370.0136917061868 426.3876636439958 L 380 431 L 376.20002800086905 420.67719937198143" stroke-miterlimit="10"/></g><g transform="translate(-22,-166) scale(1,1)"><g><path fill="none" stroke="none"/><text fill="#000000" stroke="none" font-family="Arial" font-size="14px" font-style="normal" font-weight="normal" text-decoration="none" x="330.5" y="370.5">«include»</text></g></g><g transform="translate(-22,-166) scale(1,1)"><path fill="none" stroke="#000000" d="M 325 329 L 455 350" stroke-miterlimit="10" stroke-dasharray="3"/></g><g transform="translate(-22,-166) scale(1,1)"><path fill="none" stroke="#000000" d="M 444.2960843350064 352.5349929855338 L 455 350 L 445.63867791770286 344.22369937836544" stroke-miterlimit="10"/></g><g transform="translate(-22,-166) scale(1,1)"><g><path fill="none" stroke="none"/><text fill="#000000" stroke="none" font-family="Arial" font-size="14px" font-style="normal" font-weight="normal" text-decoration="none" x="367.5" y="331.5">«include»</text></g></g></g></svg>