<svg version="1.1" xmlns="http://www.w3.org/2000/svg" xmlns:xlink="http://www.w3.org/1999/xlink" width="575" height="436"><defs/><g><g transform="translate(-110,-110) scale(1,1)"><path fill="#ffffff" stroke="none" d="M 457.99309055397725 281.68 C 457.99309055397725 276.886167936 461.87893287892274 273 466.67236328125 273 C 471.46579368357726 273 475.35163600852275 276.886167936 475.35163600852275 281.68 C 475.35163600852275 286.473832064 471.46579368357726 290.36 466.67236328125 290.36 C 461.87893287892274 290.36 457.99309055397725 286.473832064 457.99309055397725 281.68 Z"/></g><g transform="translate(-110,-110) scale(1,1)"><path fill="none" stroke="#000000" d="M 457.99309055397725 281.68 C 457.99309055397725 276.886167936 461.87893287892274 273 466.67236328125 273 C 471.46579368357726 273 475.35163600852275 276.886167936 475.35163600852275 281.68 C 475.35163600852275 286.473832064 471.46579368357726 290.36 466.67236328125 290.36 C 461.87893287892274 290.36 457.99309055397725 286.473832064 457.99309055397725 281.68 Z" stroke-miterlimit="10"/></g><g transform="translate(-110,-110) scale(1,1)"><path fill="none" stroke="#000000" d="M 466.67236328125 290.36 L 466.67236328125 307.64" stroke-miterlimit="10"/></g><g transform="translate(-110,-110) scale(1,1)"><path fill="none" stroke="#000000" d="M 457.48254509943183 296.84 L 475.86218146306817 296.84" stroke-miterlimit="10"/></g><g transform="translate(-110,-110) scale(1,1)"><path fill="none" stroke="#000000" d="M 466.67236328125 307.64 L 453.90872691761365 325" stroke-miterlimit="10"/></g><g transform="translate(-110,-110) scale(1,1)"><path fill="none" stroke="#000000" d="M 466.67236328125 307.64 L 479.43599964488635 325" stroke-miterlimit="10"/></g><g transform="translate(-110,-110) scale(1,1)"><g><path fill="none" stroke="none"/><text fill="#000000" stroke="none" font-family="Arial" font-size="14px" font-style="normal" font-weight="bold" text-decoration="none" x="452.67236328125" y="346.5">用户</text></g></g><g transform="translate(-110,-110) scale(1,1)"><path fill="#C0C0C0" stroke="none" d="M 551 432.5 C 551 422.835016 580.3253456 415 616.5 415 C 652.6746544 415 682 422.835016 682 432.5 C 682 442.164984 652.6746544 450 616.5 450 C 580.3253456 450 551 442.164984 551 432.5 Z" opacity="0.2"/></g><g transform="translate(-110,-110) scale(1,1)"><path fill="#ffffff" stroke="none" d="M 544 425.5 C 544 415.835016 573.3253456 408 609.5 408 C 645.6746544 408 675 415.835016 675 425.5 C 675 435.164984 645.6746544 443 609.5 443 C 573.3253456 443 544 435.164984 544 425.5 Z"/></g><g transform="translate(-110,-110) scale(1,1)"><path fill="none" stroke="#000000" d="M 544 425.5 C 544 415.835016 573.3253456 408 609.5 408 C 645.6746544 408 675 415.835016 675 425.5 C 675 435.164984 645.6746544 443 609.5 443 C 573.3253456 443 544 435.164984 544 425.5 Z" stroke-miterlimit="10"/></g><g transform="translate(-110,-110) scale(1,1)"><g><path fill="none" stroke="none"/><text fill="#000000" stroke="none" font-family="Arial" font-size="14px" font-style="normal" font-weight="bold" text-decoration="none" x="574.5" y="433">会议室管理</text></g></g><g transform="translate(-110,-110) scale(1,1)"><path fill="#C0C0C0" stroke="none" d="M 255 400.5 C 255 390.835016 278.9527632 383 308.5 383 C 338.0472368 383 362 390.835016 362 400.5 C 362 410.164984 338.0472368 418 308.5 418 C 278.9527632 418 255 410.164984 255 400.5 Z" opacity="0.2"/></g><g transform="translate(-110,-110) scale(1,1)"><path fill="#ffffff" stroke="none" d="M 248 393.5 C 248 383.835016 271.9527632 376 301.5 376 C 331.0472368 376 355 383.835016 355 393.5 C 355 403.164984 331.0472368 411 301.5 411 C 271.9527632 411 248 403.164984 248 393.5 Z"/></g><g transform="translate(-110,-110) scale(1,1)"><path fill="none" stroke="#000000" d="M 248 393.5 C 248 383.835016 271.9527632 376 301.5 376 C 331.0472368 376 355 383.835016 355 393.5 C 355 403.164984 331.0472368 411 301.5 411 C 271.9527632 411 248 403.164984 248 393.5 Z" stroke-miterlimit="10"/></g><g transform="translate(-110,-110) scale(1,1)"><g><path fill="none" stroke="none"/><text fill="#000000" stroke="none" font-family="Arial" font-size="14px" font-style="normal" font-weight="bold" text-decoration="none" x="273.5" y="401">会议管理</text></g></g><g transform="translate(-110,-110) scale(1,1)"><path fill="#C0C0C0" stroke="none" d="M 263 272.5 C 263 262.835016 286.9527632 255 316.5 255 C 346.0472368 255 370 262.835016 370 272.5 C 370 282.164984 346.0472368 290 316.5 290 C 286.9527632 290 263 282.164984 263 272.5 Z" opacity="0.2"/></g><g transform="translate(-110,-110) scale(1,1)"><path fill="#ffffff" stroke="none" d="M 256 265.5 C 256 255.835016 279.9527632 248 309.5 248 C 339.0472368 248 363 255.835016 363 265.5 C 363 275.164984 339.0472368 283 309.5 283 C 279.9527632 283 256 275.164984 256 265.5 Z"/></g><g transform="translate(-110,-110) scale(1,1)"><path fill="none" stroke="#000000" d="M 256 265.5 C 256 255.835016 279.9527632 248 309.5 248 C 339.0472368 248 363 255.835016 363 265.5 C 363 275.164984 339.0472368 283 309.5 283 C 279.9527632 283 256 275.164984 256 265.5 Z" stroke-miterlimit="10"/></g><g transform="translate(-110,-110) scale(1,1)"><g><path fill="none" stroke="none"/><text fill="#000000" stroke="none" font-family="Arial" font-size="14px" font-style="normal" font-weight="bold" text-decoration="none" x="281.5" y="273">用户管理</text></g></g><g transform="translate(-110,-110) scale(1,1)"><path fill="none" stroke="#000000" d="M 439 304 L 364 281" stroke-miterlimit="10"/></g><g transform="translate(-110,-110) scale(1,1)"><path fill="none" stroke="#000000" d="M 374.95025639479144 279.9550670412276 L 364 281 L 372.4818797335217 288.0041213714551" stroke-miterlimit="10"/></g><g transform="translate(-110,-110) scale(1,1)"><path fill="none" stroke="#000000" d="M 439 325 L 338 375" stroke-miterlimit="10"/></g><g transform="translate(-110,-110) scale(1,1)"><path fill="none" stroke="#000000" d="M 345.24013831451583 366.7186717740039 L 338 375 L 348.9753342447561 374.2637675530892" stroke-miterlimit="10"/></g><g transform="translate(-110,-110) scale(1,1)"><path fill="#ffffff" stroke="none" d="M 296.60002414772725 129.68 C 296.60002414772725 124.886167936 300.48586647267274 121 305.279296875 121 C 310.07272727732726 121 313.95856960227275 124.886167936 313.95856960227275 129.68 C 313.95856960227275 134.47383206400002 310.07272727732726 138.36 305.279296875 138.36 C 300.48586647267274 138.36 296.60002414772725 134.47383206400002 296.60002414772725 129.68 Z"/></g><g transform="translate(-110,-110) scale(1,1)"><path fill="none" stroke="#000000" d="M 296.60002414772725 129.68 C 296.60002414772725 124.886167936 300.48586647267274 121 305.279296875 121 C 310.07272727732726 121 313.95856960227275 124.886167936 313.95856960227275 129.68 C 313.95856960227275 134.47383206400002 310.07272727732726 138.36 305.279296875 138.36 C 300.48586647267274 138.36 296.60002414772725 134.47383206400002 296.60002414772725 129.68 Z" stroke-miterlimit="10"/></g><g transform="translate(-110,-110) scale(1,1)"><path fill="none" stroke="#000000" d="M 305.279296875 138.36 L 305.279296875 155.64" stroke-miterlimit="10"/></g><g transform="translate(-110,-110) scale(1,1)"><path fill="none" stroke="#000000" d="M 296.08947869318183 144.84 L 314.46911505681817 144.84" stroke-miterlimit="10"/></g><g transform="translate(-110,-110) scale(1,1)"><path fill="none" stroke="#000000" d="M 305.279296875 155.64 L 292.51566051136365 173" stroke-miterlimit="10"/></g><g transform="translate(-110,-110) scale(1,1)"><path fill="none" stroke="#000000" d="M 305.279296875 155.64 L 318.04293323863635 173" stroke-miterlimit="10"/></g><g transform="translate(-110,-110) scale(1,1)"><g><path fill="none" stroke="none"/><text fill="#000000" stroke="none" font-family="Arial" font-size="14px" font-style="normal" font-weight="bold" text-decoration="none" x="276.88623046875" y="194.5">虹软SDK</text></g></g><g transform="translate(-110,-110) scale(1,1)"><path fill="none" stroke="#000000" d="M 307 201 L 308 247" stroke-miterlimit="10"/></g><g transform="translate(-110,-110) scale(1,1)"><path fill="none" stroke="#000000" d="M 303.57060105042297 236.9312153193404 L 308 247 L 311.9876478921751 236.74823604017186" stroke-miterlimit="10"/></g><g transform="translate(-110,-110) scale(1,1)"><path fill="#ffffff" stroke="none" d="M 157.82072727272728 369.68 C 157.82072727272728 364.886167936 161.70656959767274 361 166.5 361 C 171.29343040232726 361 175.17927272727272 364.886167936 175.17927272727272 369.68 C 175.17927272727272 374.473832064 171.29343040232726 378.36 166.5 378.36 C 161.70656959767274 378.36 157.82072727272728 374.473832064 157.82072727272728 369.68 Z"/></g><g transform="translate(-110,-110) scale(1,1)"><path fill="none" stroke="#000000" d="M 157.82072727272728 369.68 C 157.82072727272728 364.886167936 161.70656959767274 361 166.5 361 C 171.29343040232726 361 175.17927272727272 364.886167936 175.17927272727272 369.68 C 175.17927272727272 374.473832064 171.29343040232726 378.36 166.5 378.36 C 161.70656959767274 378.36 157.82072727272728 374.473832064 157.82072727272728 369.68 Z" stroke-miterlimit="10"/></g><g transform="translate(-110,-110) scale(1,1)"><path fill="none" stroke="#000000" d="M 166.5 378.36 L 166.5 395.64" stroke-miterlimit="10"/></g><g transform="translate(-110,-110) scale(1,1)"><path fill="none" stroke="#000000" d="M 157.31018181818183 384.84 L 175.68981818181817 384.84" stroke-miterlimit="10"/></g><g transform="translate(-110,-110) scale(1,1)"><path fill="none" stroke="#000000" d="M 166.5 395.64 L 153.73636363636365 413" stroke-miterlimit="10"/></g><g transform="translate(-110,-110) scale(1,1)"><path fill="none" stroke="#000000" d="M 166.5 395.64 L 179.26363636363635 413" stroke-miterlimit="10"/></g><g transform="translate(-110,-110) scale(1,1)"><g><path fill="none" stroke="none"/><text fill="#000000" stroke="none" font-family="Arial" font-size="14px" font-style="normal" font-weight="bold" text-decoration="none" x="124.5" y="434.5">生物信息终端</text></g></g><g transform="translate(-110,-110) scale(1,1)"><path fill="none" stroke="#000000" d="M 214 398 L 247 396" stroke-miterlimit="10"/></g><g transform="translate(-110,-110) scale(1,1)"><path fill="none" stroke="#000000" d="M 237.11059314652672 400.81659963942155 L 247 396 L 236.60128308470067 392.412983619292" stroke-miterlimit="10"/></g><g transform="translate(-110,-110) scale(1,1)"><path fill="#ffffff" stroke="none" d="M 599.8207272727273 281.68 C 599.8207272727273 276.886167936 603.7065695976727 273 608.5 273 C 613.2934304023273 273 617.1792727272727 276.886167936 617.1792727272727 281.68 C 617.1792727272727 286.473832064 613.2934304023273 290.36 608.5 290.36 C 603.7065695976727 290.36 599.8207272727273 286.473832064 599.8207272727273 281.68 Z"/></g><g transform="translate(-110,-110) scale(1,1)"><path fill="none" stroke="#000000" d="M 599.8207272727273 281.68 C 599.8207272727273 276.886167936 603.7065695976727 273 608.5 273 C 613.2934304023273 273 617.1792727272727 276.886167936 617.1792727272727 281.68 C 617.1792727272727 286.473832064 613.2934304023273 290.36 608.5 290.36 C 603.7065695976727 290.36 599.8207272727273 286.473832064 599.8207272727273 281.68 Z" stroke-miterlimit="10"/></g><g transform="translate(-110,-110) scale(1,1)"><path fill="none" stroke="#000000" d="M 608.5 290.36 L 608.5 307.64" stroke-miterlimit="10"/></g><g transform="translate(-110,-110) scale(1,1)"><path fill="none" stroke="#000000" d="M 599.3101818181818 296.84 L 617.6898181818182 296.84" stroke-miterlimit="10"/></g><g transform="translate(-110,-110) scale(1,1)"><path fill="none" stroke="#000000" d="M 608.5 307.64 L 595.7363636363636 325" stroke-miterlimit="10"/></g><g transform="translate(-110,-110) scale(1,1)"><path fill="none" stroke="#000000" d="M 608.5 307.64 L 621.2636363636364 325" stroke-miterlimit="10"/></g><g transform="translate(-110,-110) scale(1,1)"><g><path fill="none" stroke="none"/><text fill="#000000" stroke="none" font-family="Arial" font-size="14px" font-style="normal" font-weight="bold" text-decoration="none" x="580.5" y="346.5">楼宇主管</text></g></g><g transform="translate(-110,-110) scale(1,1)"><path fill="none" stroke="#000000" d="M 575 312 L 494 312" stroke-miterlimit="10"/></g><g transform="translate(-110,-110) scale(1,1)"><path fill="#FFFFFF" stroke="none" d="M 514.3253497152483 303.580964487968 L 494 312 L 514.3253497152483 320.419035512032"/></g><g transform="translate(-110,-110) scale(1,1)"><path fill="none" stroke="#000000" d="M 514.3253497152483 303.580964487968 L 494 312 L 514.3253497152483 320.419035512032 L 514.3253497152483 303.580964487968" stroke-miterlimit="10"/></g><g transform="translate(-110,-110) scale(1,1)"><path fill="none" stroke="#000000" d="M 608 353 L 609 407" stroke-miterlimit="10"/></g><g transform="translate(-110,-110) scale(1,1)"><path fill="none" stroke="#000000" d="M 604.603038433977 396.9170079347985 L 609 407 L 613.0206307240026 396.76112659609436" stroke-miterlimit="10"/></g><g transform="translate(-110,-110) scale(1,1)"><path fill="#ffffff" stroke="none" d="M 293.82072727272725 465.68 C 293.82072727272725 460.886167936 297.70656959767274 457 302.5 457 C 307.29343040232726 457 311.17927272727275 460.886167936 311.17927272727275 465.68 C 311.17927272727275 470.473832064 307.29343040232726 474.36 302.5 474.36 C 297.70656959767274 474.36 293.82072727272725 470.473832064 293.82072727272725 465.68 Z"/></g><g transform="translate(-110,-110) scale(1,1)"><path fill="none" stroke="#000000" d="M 293.82072727272725 465.68 C 293.82072727272725 460.886167936 297.70656959767274 457 302.5 457 C 307.29343040232726 457 311.17927272727275 460.886167936 311.17927272727275 465.68 C 311.17927272727275 470.473832064 307.29343040232726 474.36 302.5 474.36 C 297.70656959767274 474.36 293.82072727272725 470.473832064 293.82072727272725 465.68 Z" stroke-miterlimit="10"/></g><g transform="translate(-110,-110) scale(1,1)"><path fill="none" stroke="#000000" d="M 302.5 474.36 L 302.5 491.64" stroke-miterlimit="10"/></g><g transform="translate(-110,-110) scale(1,1)"><path fill="none" stroke="#000000" d="M 293.31018181818183 480.84 L 311.68981818181817 480.84" stroke-miterlimit="10"/></g><g transform="translate(-110,-110) scale(1,1)"><path fill="none" stroke="#000000" d="M 302.5 491.64 L 289.73636363636365 509" stroke-miterlimit="10"/></g><g transform="translate(-110,-110) scale(1,1)"><path fill="none" stroke="#000000" d="M 302.5 491.64 L 315.26363636363635 509" stroke-miterlimit="10"/></g><g transform="translate(-110,-110) scale(1,1)"><g><path fill="none" stroke="none"/><text fill="#000000" stroke="none" font-family="Arial" font-size="14px" font-style="normal" font-weight="bold" text-decoration="none" x="260.5" y="530.5">智能推荐系统</text></g></g><g transform="translate(-110,-110) scale(1,1)"><path fill="none" stroke="#000000" d="M 302 455 L 301 412" stroke-miterlimit="10"/></g><g transform="translate(-110,-110) scale(1,1)"><path fill="none" stroke="#000000" d="M 305.44465728583253 422.0620585175945 L 301 412 L 297.0278974963755 422.2577971173493" stroke-miterlimit="10"/></g></g></svg>