<svg version="1.1" xmlns="http://www.w3.org/2000/svg" xmlns:xlink="http://www.w3.org/1999/xlink" width="743" height="476"><defs/><g><g transform="translate(-14,-46) scale(1,1)"><path fill="#ffffff" stroke="none" d="M 331.82072727272725 118.68 C 331.82072727272725 113.886167936 335.70656959767274 110 340.5 110 C 345.29343040232726 110 349.17927272727275 113.886167936 349.17927272727275 118.68 C 349.17927272727275 123.473832064 345.29343040232726 127.36 340.5 127.36 C 335.70656959767274 127.36 331.82072727272725 123.473832064 331.82072727272725 118.68 Z"/></g><g transform="translate(-14,-46) scale(1,1)"><path fill="none" stroke="#000000" d="M 331.82072727272725 118.68 C 331.82072727272725 113.886167936 335.70656959767274 110 340.5 110 C 345.29343040232726 110 349.17927272727275 113.886167936 349.17927272727275 118.68 C 349.17927272727275 123.473832064 345.29343040232726 127.36 340.5 127.36 C 335.70656959767274 127.36 331.82072727272725 123.473832064 331.82072727272725 118.68 Z" stroke-miterlimit="10"/></g><g transform="translate(-14,-46) scale(1,1)"><path fill="none" stroke="#000000" d="M 340.5 127.36 L 340.5 144.64" stroke-miterlimit="10"/></g><g transform="translate(-14,-46) scale(1,1)"><path fill="none" stroke="#000000" d="M 331.31018181818183 133.84 L 349.68981818181817 133.84" stroke-miterlimit="10"/></g><g transform="translate(-14,-46) scale(1,1)"><path fill="none" stroke="#000000" d="M 340.5 144.64 L 327.73636363636365 162" stroke-miterlimit="10"/></g><g transform="translate(-14,-46) scale(1,1)"><path fill="none" stroke="#000000" d="M 340.5 144.64 L 353.26363636363635 162" stroke-miterlimit="10"/></g><g transform="translate(-14,-46) scale(1,1)"><g><path fill="none" stroke="none"/><text fill="#000000" stroke="none" font-family="Arial" font-size="14px" font-style="normal" font-weight="bold" text-decoration="none" x="326.5" y="183.5">用户</text></g></g><g transform="translate(-14,-46) scale(1,1)"><path fill="#C0C0C0" stroke="none" d="M 303 272.5 C 303 262.835016 323.5948992 255 349 255 C 374.4051008 255 395 262.835016 395 272.5 C 395 282.164984 374.4051008 290 349 290 C 323.5948992 290 303 282.164984 303 272.5 Z" opacity="0.2"/></g><g transform="translate(-14,-46) scale(1,1)"><path fill="#ffffff" stroke="none" d="M 296 265.5 C 296 255.835016 316.5948992 248 342 248 C 367.4051008 248 388 255.835016 388 265.5 C 388 275.164984 367.4051008 283 342 283 C 316.5948992 283 296 275.164984 296 265.5 Z"/></g><g transform="translate(-14,-46) scale(1,1)"><path fill="none" stroke="#000000" d="M 296 265.5 C 296 255.835016 316.5948992 248 342 248 C 367.4051008 248 388 255.835016 388 265.5 C 388 275.164984 367.4051008 283 342 283 C 316.5948992 283 296 275.164984 296 265.5 Z" stroke-miterlimit="10"/></g><g transform="translate(-14,-46) scale(1,1)"><g><path fill="none" stroke="none"/><text fill="#000000" stroke="none" font-family="Arial" font-size="14px" font-style="normal" font-weight="bold" text-decoration="none" x="314" y="273">会议管理</text></g></g><g transform="translate(-14,-46) scale(1,1)"><path fill="none" stroke="#000000" d="M 341 190 L 342 247" stroke-miterlimit="10"/></g><g transform="translate(-14,-46) scale(1,1)"><path fill="none" stroke="#000000" d="M 337.612864802295 236.9127285772089 L 342 247 L 346.03060497844547 236.76504892499574" stroke-miterlimit="10"/></g><g transform="translate(-14,-46) scale(1,1)"><path fill="#C0C0C0" stroke="none" d="M 39 320.5 C 39 310.835016 62.9527632 303 92.5 303 C 122.04723680000001 303 146 310.835016 146 320.5 C 146 330.164984 122.04723680000001 338 92.5 338 C 62.9527632 338 39 330.164984 39 320.5 Z" opacity="0.2"/></g><g transform="translate(-14,-46) scale(1,1)"><path fill="#ffffff" stroke="none" d="M 32 313.5 C 32 303.835016 55.9527632 296 85.5 296 C 115.04723680000001 296 139 303.835016 139 313.5 C 139 323.164984 115.04723680000001 331 85.5 331 C 55.9527632 331 32 323.164984 32 313.5 Z"/></g><g transform="translate(-14,-46) scale(1,1)"><path fill="none" stroke="#000000" d="M 32 313.5 C 32 303.835016 55.9527632 296 85.5 296 C 115.04723680000001 296 139 303.835016 139 313.5 C 139 323.164984 115.04723680000001 331 85.5 331 C 55.9527632 331 32 323.164984 32 313.5 Z" stroke-miterlimit="10"/></g><g transform="translate(-14,-46) scale(1,1)"><g><path fill="none" stroke="none"/><text fill="#000000" stroke="none" font-family="Arial" font-size="14px" font-style="normal" font-weight="bold" text-decoration="none" x="57.5" y="321">出席会议</text></g></g><g transform="translate(-14,-46) scale(1,1)"><path fill="#C0C0C0" stroke="none" d="M 391 480.5 C 391 470.835016 414.9527632 463 444.5 463 C 474.0472368 463 498 470.835016 498 480.5 C 498 490.164984 474.0472368 498 444.5 498 C 414.9527632 498 391 490.164984 391 480.5 Z" opacity="0.2"/></g><g transform="translate(-14,-46) scale(1,1)"><path fill="#ffffff" stroke="none" d="M 384 473.5 C 384 463.835016 407.9527632 456 437.5 456 C 467.0472368 456 491 463.835016 491 473.5 C 491 483.164984 467.0472368 491 437.5 491 C 407.9527632 491 384 483.164984 384 473.5 Z"/></g><g transform="translate(-14,-46) scale(1,1)"><path fill="none" stroke="#000000" d="M 384 473.5 C 384 463.835016 407.9527632 456 437.5 456 C 467.0472368 456 491 463.835016 491 473.5 C 491 483.164984 467.0472368 491 437.5 491 C 407.9527632 491 384 483.164984 384 473.5 Z" stroke-miterlimit="10"/></g><g transform="translate(-14,-46) scale(1,1)"><g><path fill="none" stroke="none"/><text fill="#000000" stroke="none" font-family="Arial" font-size="14px" font-style="normal" font-weight="bold" text-decoration="none" x="409.5" y="481">预定会议</text></g></g><g transform="translate(-14,-46) scale(1,1)"><path fill="#C0C0C0" stroke="none" d="M 103 232.5 C 103 222.835016 126.95276319999999 215 156.5 215 C 186.0472368 215 210 222.835016 210 232.5 C 210 242.164984 186.0472368 250 156.5 250 C 126.95276319999999 250 103 242.164984 103 232.5 Z" opacity="0.2"/></g><g transform="translate(-14,-46) scale(1,1)"><path fill="#ffffff" stroke="none" d="M 96 225.5 C 96 215.835016 119.95276319999999 208 149.5 208 C 179.0472368 208 203 215.835016 203 225.5 C 203 235.164984 179.0472368 243 149.5 243 C 119.95276319999999 243 96 235.164984 96 225.5 Z"/></g><g transform="translate(-14,-46) scale(1,1)"><path fill="none" stroke="#000000" d="M 96 225.5 C 96 215.835016 119.95276319999999 208 149.5 208 C 179.0472368 208 203 215.835016 203 225.5 C 203 235.164984 179.0472368 243 149.5 243 C 119.95276319999999 243 96 235.164984 96 225.5 Z" stroke-miterlimit="10"/></g><g transform="translate(-14,-46) scale(1,1)"><g><path fill="none" stroke="none"/><text fill="#000000" stroke="none" font-family="Arial" font-size="14px" font-style="normal" font-weight="bold" text-decoration="none" x="121.5" y="233">取消预订</text></g></g><g transform="translate(-14,-46) scale(1,1)"><path fill="#C0C0C0" stroke="none" d="M 519 352.5 C 519 342.835016 548.3253456 335 584.5 335 C 620.6746544 335 650 342.835016 650 352.5 C 650 362.164984 620.6746544 370 584.5 370 C 548.3253456 370 519 362.164984 519 352.5 Z" opacity="0.2"/></g><g transform="translate(-14,-46) scale(1,1)"><path fill="#ffffff" stroke="none" d="M 512 345.5 C 512 335.835016 541.3253456 328 577.5 328 C 613.6746544 328 643 335.835016 643 345.5 C 643 355.164984 613.6746544 363 577.5 363 C 541.3253456 363 512 355.164984 512 345.5 Z"/></g><g transform="translate(-14,-46) scale(1,1)"><path fill="none" stroke="#000000" d="M 512 345.5 C 512 335.835016 541.3253456 328 577.5 328 C 613.6746544 328 643 335.835016 643 345.5 C 643 355.164984 613.6746544 363 577.5 363 C 541.3253456 363 512 355.164984 512 345.5 Z" stroke-miterlimit="10"/></g><g transform="translate(-14,-46) scale(1,1)"><g><path fill="none" stroke="none"/><text fill="#000000" stroke="none" font-family="Arial" font-size="14px" font-style="normal" font-weight="bold" text-decoration="none" x="535.5" y="353">会议信息更改</text></g></g><g transform="translate(-14,-46) scale(1,1)"><path fill="#C0C0C0" stroke="none" d="M 623 160.5 C 623 150.835016 652.3253456 143 688.5 143 C 724.6746544 143 754 150.835016 754 160.5 C 754 170.164984 724.6746544 178 688.5 178 C 652.3253456 178 623 170.164984 623 160.5 Z" opacity="0.2"/></g><g transform="translate(-14,-46) scale(1,1)"><path fill="#ffffff" stroke="none" d="M 616 153.5 C 616 143.835016 645.3253456 136 681.5 136 C 717.6746544 136 747 143.835016 747 153.5 C 747 163.164984 717.6746544 171 681.5 171 C 645.3253456 171 616 163.164984 616 153.5 Z"/></g><g transform="translate(-14,-46) scale(1,1)"><path fill="none" stroke="#000000" d="M 616 153.5 C 616 143.835016 645.3253456 136 681.5 136 C 717.6746544 136 747 143.835016 747 153.5 C 747 163.164984 717.6746544 171 681.5 171 C 645.3253456 171 616 163.164984 616 153.5 Z" stroke-miterlimit="10"/></g><g transform="translate(-14,-46) scale(1,1)"><g><path fill="none" stroke="none"/><text fill="#000000" stroke="none" font-family="Arial" font-size="14px" font-style="normal" font-weight="bold" text-decoration="none" x="639.5" y="161">驳回预定申请</text></g></g><g transform="translate(-14,-46) scale(1,1)"><path fill="#ffffff" stroke="none" d="M 503.82072727272725 65.68 C 503.82072727272725 60.88616793600001 507.70656959767274 57 512.5 57 C 517.2934304023273 57 521.1792727272727 60.88616793600001 521.1792727272727 65.68 C 521.1792727272727 70.473832064 517.2934304023273 74.36 512.5 74.36 C 507.70656959767274 74.36 503.82072727272725 70.473832064 503.82072727272725 65.68 Z"/></g><g transform="translate(-14,-46) scale(1,1)"><path fill="none" stroke="#000000" d="M 503.82072727272725 65.68 C 503.82072727272725 60.88616793600001 507.70656959767274 57 512.5 57 C 517.2934304023273 57 521.1792727272727 60.88616793600001 521.1792727272727 65.68 C 521.1792727272727 70.473832064 517.2934304023273 74.36 512.5 74.36 C 507.70656959767274 74.36 503.82072727272725 70.473832064 503.82072727272725 65.68 Z" stroke-miterlimit="10"/></g><g transform="translate(-14,-46) scale(1,1)"><path fill="none" stroke="#000000" d="M 512.5 74.36 L 512.5 91.64" stroke-miterlimit="10"/></g><g transform="translate(-14,-46) scale(1,1)"><path fill="none" stroke="#000000" d="M 503.31018181818183 80.84 L 521.6898181818182 80.84" stroke-miterlimit="10"/></g><g transform="translate(-14,-46) scale(1,1)"><path fill="none" stroke="#000000" d="M 512.5 91.64 L 499.73636363636365 109" stroke-miterlimit="10"/></g><g transform="translate(-14,-46) scale(1,1)"><path fill="none" stroke="#000000" d="M 512.5 91.64 L 525.2636363636364 109" stroke-miterlimit="10"/></g><g transform="translate(-14,-46) scale(1,1)"><g><path fill="none" stroke="none"/><text fill="#000000" stroke="none" font-family="Arial" font-size="14px" font-style="normal" font-weight="bold" text-decoration="none" x="484.5" y="130.5">楼宇主管</text></g></g><g transform="translate(-14,-46) scale(1,1)"><path fill="none" stroke="#000000" d="M 479 106 L 360 143" stroke-miterlimit="10"/></g><g transform="translate(-14,-46) scale(1,1)"><path fill="#FFFFFF" stroke="none" d="M 376.90918069905587 128.9259242546206 L 360 143 L 381.90847073510196 145.0047219381202"/></g><g transform="translate(-14,-46) scale(1,1)"><path fill="none" stroke="#000000" d="M 376.90918069905587 128.9259242546206 L 360 143 L 381.90847073510196 145.0047219381202 L 376.90918069905587 128.9259242546206" stroke-miterlimit="10"/></g><g transform="translate(-14,-46) scale(1,1)"><path fill="none" stroke="#000000" d="M 546 107 L 628 135" stroke-miterlimit="10"/></g><g transform="translate(-14,-46) scale(1,1)"><path fill="none" stroke="#000000" d="M 617.0222743230435 135.69967060928 L 628 135 L 619.7428338993996 127.73231756423718" stroke-miterlimit="10"/></g><g transform="translate(-14,-46) scale(1,1)"><path fill="none" stroke="#000000" d="M 295 255 L 204 236" stroke-miterlimit="10" stroke-dasharray="3"/></g><g transform="translate(-14,-46) scale(1,1)"><path fill="none" stroke="#000000" d="M 214.8085064891978 233.9564277666378 L 204 236 L 213.0877920170655 242.19774444895563" stroke-miterlimit="10"/></g><g transform="translate(-14,-46) scale(1,1)"><g><path fill="none" stroke="none"/><text fill="#000000" stroke="none" font-family="Arial" font-size="14px" font-style="normal" font-weight="normal" text-decoration="none" x="247.5" y="236.5">«include»</text></g></g><g transform="translate(-14,-46) scale(1,1)"><path fill="none" stroke="#000000" d="M 295 274 L 140 303" stroke-miterlimit="10" stroke-dasharray="3"/></g><g transform="translate(-14,-46) scale(1,1)"><path fill="none" stroke="#000000" d="M 149.2151852670461 296.993307025158 L 140 303 L 150.76349332723504 305.2687466572023" stroke-miterlimit="10"/></g><g transform="translate(-14,-46) scale(1,1)"><g><path fill="none" stroke="none"/><text fill="#000000" stroke="none" font-family="Arial" font-size="14px" font-style="normal" font-weight="normal" text-decoration="none" x="210.5" y="301.5">«include»</text></g></g><g transform="translate(-14,-46) scale(1,1)"><path fill="none" stroke="#000000" d="M 351 284 L 429 455" stroke-miterlimit="10" stroke-dasharray="3"/></g><g transform="translate(-14,-46) scale(1,1)"><path fill="none" stroke="#000000" d="M 420.95253785365975 447.50077650664946 L 429 455 L 428.6123367307624 444.0068331591991" stroke-miterlimit="10"/></g><g transform="translate(-14,-46) scale(1,1)"><g><path fill="none" stroke="none"/><text fill="#000000" stroke="none" font-family="Arial" font-size="14px" font-style="normal" font-weight="normal" text-decoration="none" x="394.5" y="364.5">«include»</text></g></g><g transform="translate(-14,-46) scale(1,1)"><path fill="none" stroke="#000000" d="M 389 281 L 524 327" stroke-miterlimit="10" stroke-dasharray="3"/></g><g transform="translate(-14,-46) scale(1,1)"><path fill="none" stroke="#000000" d="M 513.022729557676 327.70677693516416 L 524 327 L 515.7381308676732 319.7376643949549" stroke-miterlimit="10"/></g><g transform="translate(-14,-46) scale(1,1)"><g><path fill="none" stroke="none"/><text fill="#000000" stroke="none" font-family="Arial" font-size="14px" font-style="normal" font-weight="normal" text-decoration="none" x="459.5" y="293.5">«include»</text></g></g><g transform="translate(-14,-46) scale(1,1)"><path fill="#ffffff" stroke="none" d="M 503.82072727272725 177.68 C 503.82072727272725 172.886167936 507.70656959767274 169 512.5 169 C 517.2934304023273 169 521.1792727272727 172.886167936 521.1792727272727 177.68 C 521.1792727272727 182.47383206400002 517.2934304023273 186.36 512.5 186.36 C 507.70656959767274 186.36 503.82072727272725 182.47383206400002 503.82072727272725 177.68 Z"/></g><g transform="translate(-14,-46) scale(1,1)"><path fill="none" stroke="#000000" d="M 503.82072727272725 177.68 C 503.82072727272725 172.886167936 507.70656959767274 169 512.5 169 C 517.2934304023273 169 521.1792727272727 172.886167936 521.1792727272727 177.68 C 521.1792727272727 182.47383206400002 517.2934304023273 186.36 512.5 186.36 C 507.70656959767274 186.36 503.82072727272725 182.47383206400002 503.82072727272725 177.68 Z" stroke-miterlimit="10"/></g><g transform="translate(-14,-46) scale(1,1)"><path fill="none" stroke="#000000" d="M 512.5 186.36 L 512.5 203.64" stroke-miterlimit="10"/></g><g transform="translate(-14,-46) scale(1,1)"><path fill="none" stroke="#000000" d="M 503.31018181818183 192.84 L 521.6898181818182 192.84" stroke-miterlimit="10"/></g><g transform="translate(-14,-46) scale(1,1)"><path fill="none" stroke="#000000" d="M 512.5 203.64 L 499.73636363636365 221" stroke-miterlimit="10"/></g><g transform="translate(-14,-46) scale(1,1)"><path fill="none" stroke="#000000" d="M 512.5 203.64 L 525.2636363636364 221" stroke-miterlimit="10"/></g><g transform="translate(-14,-46) scale(1,1)"><g><path fill="none" stroke="none"/><text fill="#000000" stroke="none" font-family="Arial" font-size="14px" font-style="normal" font-weight="bold" text-decoration="none" x="484.5" y="242.5">部门主管</text></g></g><g transform="translate(-14,-46) scale(1,1)"><path fill="none" stroke="#000000" d="M 479 197 L 360 156" stroke-miterlimit="10"/></g><g transform="translate(-14,-46) scale(1,1)"><path fill="#FFFFFF" stroke="none" d="M 381.95921755268665 154.66105845020084 L 360 156 L 376.4742862905308 170.58073699157998"/></g><g transform="translate(-14,-46) scale(1,1)"><path fill="none" stroke="#000000" d="M 381.95921755268665 154.66105845020084 L 360 156 L 376.4742862905308 170.58073699157998 L 381.95921755268665 154.66105845020084" stroke-miterlimit="10"/></g><g transform="translate(-14,-46) scale(1,1)"><path fill="none" stroke="#000000" d="M 546 197 L 623 172" stroke-miterlimit="10"/></g><g transform="translate(-14,-46) scale(1,1)"><path fill="none" stroke="#000000" d="M 614.6339554029231 179.14207937506436 L 623 172 L 612.0341003758173 171.13452589157842" stroke-miterlimit="10"/></g><g transform="translate(-14,-46) scale(1,1)"><path fill="#ffffff" stroke="none" d="M 75.82072727272727 393.68 C 75.82072727272727 388.886167936 79.70656959767273 385 84.5 385 C 89.29343040232727 385 93.17927272727273 388.886167936 93.17927272727273 393.68 C 93.17927272727273 398.473832064 89.29343040232727 402.36 84.5 402.36 C 79.70656959767273 402.36 75.82072727272727 398.473832064 75.82072727272727 393.68 Z"/></g><g transform="translate(-14,-46) scale(1,1)"><path fill="none" stroke="#000000" d="M 75.82072727272727 393.68 C 75.82072727272727 388.886167936 79.70656959767273 385 84.5 385 C 89.29343040232727 385 93.17927272727273 388.886167936 93.17927272727273 393.68 C 93.17927272727273 398.473832064 89.29343040232727 402.36 84.5 402.36 C 79.70656959767273 402.36 75.82072727272727 398.473832064 75.82072727272727 393.68 Z" stroke-miterlimit="10"/></g><g transform="translate(-14,-46) scale(1,1)"><path fill="none" stroke="#000000" d="M 84.5 402.36 L 84.5 419.64" stroke-miterlimit="10"/></g><g transform="translate(-14,-46) scale(1,1)"><path fill="none" stroke="#000000" d="M 75.31018181818182 408.84 L 93.68981818181818 408.84" stroke-miterlimit="10"/></g><g transform="translate(-14,-46) scale(1,1)"><path fill="none" stroke="#000000" d="M 84.5 419.64 L 71.73636363636363 437" stroke-miterlimit="10"/></g><g transform="translate(-14,-46) scale(1,1)"><path fill="none" stroke="#000000" d="M 84.5 419.64 L 97.26363636363637 437" stroke-miterlimit="10"/></g><g transform="translate(-14,-46) scale(1,1)"><g><path fill="none" stroke="none"/><text fill="#000000" stroke="none" font-family="Arial" font-size="14px" font-style="normal" font-weight="bold" text-decoration="none" x="42.5" y="458.5">生物信息终端</text></g></g><g transform="translate(-14,-46) scale(1,1)"><path fill="#C0C0C0" stroke="none" d="M 231 384.5 C 231 374.835016 254.9527632 367 284.5 367 C 314.0472368 367 338 374.835016 338 384.5 C 338 394.164984 314.0472368 402 284.5 402 C 254.9527632 402 231 394.164984 231 384.5 Z" opacity="0.2"/></g><g transform="translate(-14,-46) scale(1,1)"><path fill="#ffffff" stroke="none" d="M 224 377.5 C 224 367.835016 247.9527632 360 277.5 360 C 307.0472368 360 331 367.835016 331 377.5 C 331 387.164984 307.0472368 395 277.5 395 C 247.9527632 395 224 387.164984 224 377.5 Z"/></g><g transform="translate(-14,-46) scale(1,1)"><path fill="none" stroke="#000000" d="M 224 377.5 C 224 367.835016 247.9527632 360 277.5 360 C 307.0472368 360 331 367.835016 331 377.5 C 331 387.164984 307.0472368 395 277.5 395 C 247.9527632 395 224 387.164984 224 377.5 Z" stroke-miterlimit="10"/></g><g transform="translate(-14,-46) scale(1,1)"><g><path fill="none" stroke="none"/><text fill="#000000" stroke="none" font-family="Arial" font-size="14px" font-style="normal" font-weight="bold" text-decoration="none" x="249.5" y="385">智能推荐</text></g></g><g transform="translate(-14,-46) scale(1,1)"><path fill="none" stroke="#000000" d="M 84 383 L 85 332" stroke-miterlimit="10"/></g><g transform="translate(-14,-46) scale(1,1)"><path fill="none" stroke="#000000" d="M 89.00947893842438 342.24324551313356 L 85 332 L 80.59206138268908 342.07819811007994" stroke-miterlimit="10"/></g><g transform="translate(-14,-46) scale(1,1)"><path fill="none" stroke="#000000" d="M 287 359 L 331 284" stroke-miterlimit="10" stroke-dasharray="3"/></g><g transform="translate(-14,-46) scale(1,1)"><path fill="none" stroke="#000000" d="M 329.48835193713796 294.89563766532484 L 331 284 L 322.22672412547996 290.63548268248553" stroke-miterlimit="10"/></g><g transform="translate(-14,-46) scale(1,1)"><g><path fill="none" stroke="none"/><text fill="#000000" stroke="none" font-family="Arial" font-size="14px" font-style="normal" font-weight="normal" text-decoration="none" x="231.5" y="340.5">«extend»</text></g></g><g transform="translate(-14,-46) scale(1,1)"><path fill="none" stroke="#000000" d="M 309 396 L 407 455" stroke-miterlimit="10" stroke-dasharray="3"/></g><g transform="translate(-14,-46) scale(1,1)"><path fill="none" stroke="#000000" d="M 396.12223872906293 453.36466831116684 L 407 455 L 400.46461536785523 446.1519071145288" stroke-miterlimit="10"/></g><g transform="translate(-14,-46) scale(1,1)"><g><path fill="none" stroke="none"/><text fill="#000000" stroke="none" font-family="Arial" font-size="14px" font-style="normal" font-weight="normal" text-decoration="none" x="291.5" y="445.5">«include»</text></g></g><g transform="translate(-14,-46) scale(1,1)"><path fill="#ffffff" stroke="none" d="M 205.82072727272728 441.68 C 205.82072727272728 436.886167936 209.70656959767274 433 214.5 433 C 219.29343040232726 433 223.17927272727272 436.886167936 223.17927272727272 441.68 C 223.17927272727272 446.473832064 219.29343040232726 450.36 214.5 450.36 C 209.70656959767274 450.36 205.82072727272728 446.473832064 205.82072727272728 441.68 Z"/></g><g transform="translate(-14,-46) scale(1,1)"><path fill="none" stroke="#000000" d="M 205.82072727272728 441.68 C 205.82072727272728 436.886167936 209.70656959767274 433 214.5 433 C 219.29343040232726 433 223.17927272727272 436.886167936 223.17927272727272 441.68 C 223.17927272727272 446.473832064 219.29343040232726 450.36 214.5 450.36 C 209.70656959767274 450.36 205.82072727272728 446.473832064 205.82072727272728 441.68 Z" stroke-miterlimit="10"/></g><g transform="translate(-14,-46) scale(1,1)"><path fill="none" stroke="#000000" d="M 214.5 450.36 L 214.5 467.64" stroke-miterlimit="10"/></g><g transform="translate(-14,-46) scale(1,1)"><path fill="none" stroke="#000000" d="M 205.31018181818183 456.84 L 223.68981818181817 456.84" stroke-miterlimit="10"/></g><g transform="translate(-14,-46) scale(1,1)"><path fill="none" stroke="#000000" d="M 214.5 467.64 L 201.73636363636365 485" stroke-miterlimit="10"/></g><g transform="translate(-14,-46) scale(1,1)"><path fill="none" stroke="#000000" d="M 214.5 467.64 L 227.26363636363635 485" stroke-miterlimit="10"/></g><g transform="translate(-14,-46) scale(1,1)"><g><path fill="none" stroke="none"/><text fill="#000000" stroke="none" font-family="Arial" font-size="14px" font-style="normal" font-weight="bold" text-decoration="none" x="172.5" y="506.5">智能推荐系统</text></g></g><g transform="translate(-14,-46) scale(1,1)"><path fill="none" stroke="#000000" d="M 241 431 L 264 396" stroke-miterlimit="10"/></g><g transform="translate(-14,-46) scale(1,1)"><path fill="none" stroke="#000000" d="M 261.9368007544711 406.804777132049 L 264 396 L 254.90096664326637 402.18122900182874" stroke-miterlimit="10"/></g></g></svg>