<svg version="1.1" xmlns="http://www.w3.org/2000/svg" xmlns:xlink="http://www.w3.org/1999/xlink" width="711" height="455"><defs/><g><g transform="translate(-46,-46) scale(1,1)"><path fill="#ffffff" stroke="none" d="M 331.82072727272725 118.68 C 331.82072727272725 113.886167936 335.70656959767274 110 340.5 110 C 345.29343040232726 110 349.17927272727275 113.886167936 349.17927272727275 118.68 C 349.17927272727275 123.473832064 345.29343040232726 127.36 340.5 127.36 C 335.70656959767274 127.36 331.82072727272725 123.473832064 331.82072727272725 118.68 Z"/></g><g transform="translate(-46,-46) scale(1,1)"><path fill="none" stroke="#000000" d="M 331.82072727272725 118.68 C 331.82072727272725 113.886167936 335.70656959767274 110 340.5 110 C 345.29343040232726 110 349.17927272727275 113.886167936 349.17927272727275 118.68 C 349.17927272727275 123.473832064 345.29343040232726 127.36 340.5 127.36 C 335.70656959767274 127.36 331.82072727272725 123.473832064 331.82072727272725 118.68 Z" stroke-miterlimit="10"/></g><g transform="translate(-46,-46) scale(1,1)"><path fill="none" stroke="#000000" d="M 340.5 127.36 L 340.5 144.64" stroke-miterlimit="10"/></g><g transform="translate(-46,-46) scale(1,1)"><path fill="none" stroke="#000000" d="M 331.31018181818183 133.84 L 349.68981818181817 133.84" stroke-miterlimit="10"/></g><g transform="translate(-46,-46) scale(1,1)"><path fill="none" stroke="#000000" d="M 340.5 144.64 L 327.73636363636365 162" stroke-miterlimit="10"/></g><g transform="translate(-46,-46) scale(1,1)"><path fill="none" stroke="#000000" d="M 340.5 144.64 L 353.26363636363635 162" stroke-miterlimit="10"/></g><g transform="translate(-46,-46) scale(1,1)"><g><path fill="none" stroke="none"/><text fill="#000000" stroke="none" font-family="Arial" font-size="14px" font-style="normal" font-weight="bold" text-decoration="none" x="326.5" y="183.5">用户</text></g></g><g transform="translate(-46,-46) scale(1,1)"><path fill="#C0C0C0" stroke="none" d="M 303 272.5 C 303 262.835016 323.5948992 255 349 255 C 374.4051008 255 395 262.835016 395 272.5 C 395 282.164984 374.4051008 290 349 290 C 323.5948992 290 303 282.164984 303 272.5 Z" opacity="0.2"/></g><g transform="translate(-46,-46) scale(1,1)"><path fill="#ffffff" stroke="none" d="M 296 265.5 C 296 255.835016 316.5948992 248 342 248 C 367.4051008 248 388 255.835016 388 265.5 C 388 275.164984 367.4051008 283 342 283 C 316.5948992 283 296 275.164984 296 265.5 Z"/></g><g transform="translate(-46,-46) scale(1,1)"><path fill="none" stroke="#000000" d="M 296 265.5 C 296 255.835016 316.5948992 248 342 248 C 367.4051008 248 388 255.835016 388 265.5 C 388 275.164984 367.4051008 283 342 283 C 316.5948992 283 296 275.164984 296 265.5 Z" stroke-miterlimit="10"/></g><g transform="translate(-46,-46) scale(1,1)"><g><path fill="none" stroke="none"/><text fill="#000000" stroke="none" font-family="Arial" font-size="14px" font-style="normal" font-weight="bold" text-decoration="none" x="314" y="273">会议管理</text></g></g><g transform="translate(-46,-46) scale(1,1)"><path fill="none" stroke="#000000" d="M 341 190 L 342 247" stroke-miterlimit="10"/></g><g transform="translate(-46,-46) scale(1,1)"><path fill="none" stroke="#000000" d="M 337.612864802295 236.9127285772089 L 342 247 L 346.03060497844547 236.76504892499574" stroke-miterlimit="10"/></g><g transform="translate(-46,-46) scale(1,1)"><path fill="#C0C0C0" stroke="none" d="M 63 336.5 C 63 326.835016 86.95276319999999 319 116.5 319 C 146.0472368 319 170 326.835016 170 336.5 C 170 346.164984 146.0472368 354 116.5 354 C 86.95276319999999 354 63 346.164984 63 336.5 Z" opacity="0.2"/></g><g transform="translate(-46,-46) scale(1,1)"><path fill="#ffffff" stroke="none" d="M 56 329.5 C 56 319.835016 79.95276319999999 312 109.5 312 C 139.0472368 312 163 319.835016 163 329.5 C 163 339.164984 139.0472368 347 109.5 347 C 79.95276319999999 347 56 339.164984 56 329.5 Z"/></g><g transform="translate(-46,-46) scale(1,1)"><path fill="none" stroke="#000000" d="M 56 329.5 C 56 319.835016 79.95276319999999 312 109.5 312 C 139.0472368 312 163 319.835016 163 329.5 C 163 339.164984 139.0472368 347 109.5 347 C 79.95276319999999 347 56 339.164984 56 329.5 Z" stroke-miterlimit="10"/></g><g transform="translate(-46,-46) scale(1,1)"><g><path fill="none" stroke="none"/><text fill="#000000" stroke="none" font-family="Arial" font-size="14px" font-style="normal" font-weight="bold" text-decoration="none" x="81.5" y="337">出席会议</text></g></g><g transform="translate(-46,-46) scale(1,1)"><path fill="#C0C0C0" stroke="none" d="M 335 480.5 C 335 470.835016 358.9527632 463 388.5 463 C 418.0472368 463 442 470.835016 442 480.5 C 442 490.164984 418.0472368 498 388.5 498 C 358.9527632 498 335 490.164984 335 480.5 Z" opacity="0.2"/></g><g transform="translate(-46,-46) scale(1,1)"><path fill="#ffffff" stroke="none" d="M 328 473.5 C 328 463.835016 351.9527632 456 381.5 456 C 411.0472368 456 435 463.835016 435 473.5 C 435 483.164984 411.0472368 491 381.5 491 C 351.9527632 491 328 483.164984 328 473.5 Z"/></g><g transform="translate(-46,-46) scale(1,1)"><path fill="none" stroke="#000000" d="M 328 473.5 C 328 463.835016 351.9527632 456 381.5 456 C 411.0472368 456 435 463.835016 435 473.5 C 435 483.164984 411.0472368 491 381.5 491 C 351.9527632 491 328 483.164984 328 473.5 Z" stroke-miterlimit="10"/></g><g transform="translate(-46,-46) scale(1,1)"><g><path fill="none" stroke="none"/><text fill="#000000" stroke="none" font-family="Arial" font-size="14px" font-style="normal" font-weight="bold" text-decoration="none" x="353.5" y="481">预定会议</text></g></g><g transform="translate(-46,-46) scale(1,1)"><path fill="#C0C0C0" stroke="none" d="M 103 232.5 C 103 222.835016 126.95276319999999 215 156.5 215 C 186.0472368 215 210 222.835016 210 232.5 C 210 242.164984 186.0472368 250 156.5 250 C 126.95276319999999 250 103 242.164984 103 232.5 Z" opacity="0.2"/></g><g transform="translate(-46,-46) scale(1,1)"><path fill="#ffffff" stroke="none" d="M 96 225.5 C 96 215.835016 119.95276319999999 208 149.5 208 C 179.0472368 208 203 215.835016 203 225.5 C 203 235.164984 179.0472368 243 149.5 243 C 119.95276319999999 243 96 235.164984 96 225.5 Z"/></g><g transform="translate(-46,-46) scale(1,1)"><path fill="none" stroke="#000000" d="M 96 225.5 C 96 215.835016 119.95276319999999 208 149.5 208 C 179.0472368 208 203 215.835016 203 225.5 C 203 235.164984 179.0472368 243 149.5 243 C 119.95276319999999 243 96 235.164984 96 225.5 Z" stroke-miterlimit="10"/></g><g transform="translate(-46,-46) scale(1,1)"><g><path fill="none" stroke="none"/><text fill="#000000" stroke="none" font-family="Arial" font-size="14px" font-style="normal" font-weight="bold" text-decoration="none" x="121.5" y="233">取消预订</text></g></g><g transform="translate(-46,-46) scale(1,1)"><path fill="#C0C0C0" stroke="none" d="M 463 392.5 C 463 382.835016 492.3253456 375 528.5 375 C 564.6746544 375 594 382.835016 594 392.5 C 594 402.164984 564.6746544 410 528.5 410 C 492.3253456 410 463 402.164984 463 392.5 Z" opacity="0.2"/></g><g transform="translate(-46,-46) scale(1,1)"><path fill="#ffffff" stroke="none" d="M 456 385.5 C 456 375.835016 485.3253456 368 521.5 368 C 557.6746544 368 587 375.835016 587 385.5 C 587 395.164984 557.6746544 403 521.5 403 C 485.3253456 403 456 395.164984 456 385.5 Z"/></g><g transform="translate(-46,-46) scale(1,1)"><path fill="none" stroke="#000000" d="M 456 385.5 C 456 375.835016 485.3253456 368 521.5 368 C 557.6746544 368 587 375.835016 587 385.5 C 587 395.164984 557.6746544 403 521.5 403 C 485.3253456 403 456 395.164984 456 385.5 Z" stroke-miterlimit="10"/></g><g transform="translate(-46,-46) scale(1,1)"><g><path fill="none" stroke="none"/><text fill="#000000" stroke="none" font-family="Arial" font-size="14px" font-style="normal" font-weight="bold" text-decoration="none" x="479.5" y="393">会议信息更改</text></g></g><g transform="translate(-46,-46) scale(1,1)"><path fill="#C0C0C0" stroke="none" d="M 623 160.5 C 623 150.835016 652.3253456 143 688.5 143 C 724.6746544 143 754 150.835016 754 160.5 C 754 170.164984 724.6746544 178 688.5 178 C 652.3253456 178 623 170.164984 623 160.5 Z" opacity="0.2"/></g><g transform="translate(-46,-46) scale(1,1)"><path fill="#ffffff" stroke="none" d="M 616 153.5 C 616 143.835016 645.3253456 136 681.5 136 C 717.6746544 136 747 143.835016 747 153.5 C 747 163.164984 717.6746544 171 681.5 171 C 645.3253456 171 616 163.164984 616 153.5 Z"/></g><g transform="translate(-46,-46) scale(1,1)"><path fill="none" stroke="#000000" d="M 616 153.5 C 616 143.835016 645.3253456 136 681.5 136 C 717.6746544 136 747 143.835016 747 153.5 C 747 163.164984 717.6746544 171 681.5 171 C 645.3253456 171 616 163.164984 616 153.5 Z" stroke-miterlimit="10"/></g><g transform="translate(-46,-46) scale(1,1)"><g><path fill="none" stroke="none"/><text fill="#000000" stroke="none" font-family="Arial" font-size="14px" font-style="normal" font-weight="bold" text-decoration="none" x="639.5" y="161">驳回预定申请</text></g></g><g transform="translate(-46,-46) scale(1,1)"><path fill="#ffffff" stroke="none" d="M 503.82072727272725 65.68 C 503.82072727272725 60.88616793600001 507.70656959767274 57 512.5 57 C 517.2934304023273 57 521.1792727272727 60.88616793600001 521.1792727272727 65.68 C 521.1792727272727 70.473832064 517.2934304023273 74.36 512.5 74.36 C 507.70656959767274 74.36 503.82072727272725 70.473832064 503.82072727272725 65.68 Z"/></g><g transform="translate(-46,-46) scale(1,1)"><path fill="none" stroke="#000000" d="M 503.82072727272725 65.68 C 503.82072727272725 60.88616793600001 507.70656959767274 57 512.5 57 C 517.2934304023273 57 521.1792727272727 60.88616793600001 521.1792727272727 65.68 C 521.1792727272727 70.473832064 517.2934304023273 74.36 512.5 74.36 C 507.70656959767274 74.36 503.82072727272725 70.473832064 503.82072727272725 65.68 Z" stroke-miterlimit="10"/></g><g transform="translate(-46,-46) scale(1,1)"><path fill="none" stroke="#000000" d="M 512.5 74.36 L 512.5 91.64" stroke-miterlimit="10"/></g><g transform="translate(-46,-46) scale(1,1)"><path fill="none" stroke="#000000" d="M 503.31018181818183 80.84 L 521.6898181818182 80.84" stroke-miterlimit="10"/></g><g transform="translate(-46,-46) scale(1,1)"><path fill="none" stroke="#000000" d="M 512.5 91.64 L 499.73636363636365 109" stroke-miterlimit="10"/></g><g transform="translate(-46,-46) scale(1,1)"><path fill="none" stroke="#000000" d="M 512.5 91.64 L 525.2636363636364 109" stroke-miterlimit="10"/></g><g transform="translate(-46,-46) scale(1,1)"><g><path fill="none" stroke="none"/><text fill="#000000" stroke="none" font-family="Arial" font-size="14px" font-style="normal" font-weight="bold" text-decoration="none" x="484.5" y="130.5">楼宇主管</text></g></g><g transform="translate(-46,-46) scale(1,1)"><path fill="none" stroke="#000000" d="M 479 106 L 360 143" stroke-miterlimit="10"/></g><g transform="translate(-46,-46) scale(1,1)"><path fill="#FFFFFF" stroke="none" d="M 376.90918069905587 128.9259242546206 L 360 143 L 381.90847073510196 145.0047219381202"/></g><g transform="translate(-46,-46) scale(1,1)"><path fill="none" stroke="#000000" d="M 376.90918069905587 128.9259242546206 L 360 143 L 381.90847073510196 145.0047219381202 L 376.90918069905587 128.9259242546206" stroke-miterlimit="10"/></g><g transform="translate(-46,-46) scale(1,1)"><path fill="none" stroke="#000000" d="M 546 107 L 628 135" stroke-miterlimit="10"/></g><g transform="translate(-46,-46) scale(1,1)"><path fill="none" stroke="#000000" d="M 617.0222743230435 135.69967060928 L 628 135 L 619.7428338993996 127.73231756423718" stroke-miterlimit="10"/></g><g transform="translate(-46,-46) scale(1,1)"><path fill="none" stroke="#000000" d="M 295 255 L 204 236" stroke-miterlimit="10" stroke-dasharray="3"/></g><g transform="translate(-46,-46) scale(1,1)"><path fill="none" stroke="#000000" d="M 214.8085064891978 233.9564277666378 L 204 236 L 213.0877920170655 242.19774444895563" stroke-miterlimit="10"/></g><g transform="translate(-46,-46) scale(1,1)"><g><path fill="none" stroke="none"/><text fill="#000000" stroke="none" font-family="Arial" font-size="14px" font-style="normal" font-weight="normal" text-decoration="none" x="247.5" y="236.5">«include»</text></g></g><g transform="translate(-46,-46) scale(1,1)"><path fill="none" stroke="#000000" d="M 295 278 L 164 314" stroke-miterlimit="10" stroke-dasharray="3"/></g><g transform="translate(-46,-46) scale(1,1)"><path fill="none" stroke="#000000" d="M 172.68392312875406 307.2480018443508 L 164 314 L 174.9148446140633 315.3660772492261" stroke-miterlimit="10"/></g><g transform="translate(-46,-46) scale(1,1)"><g><path fill="none" stroke="none"/><text fill="#000000" stroke="none" font-family="Arial" font-size="14px" font-style="normal" font-weight="normal" text-decoration="none" x="223.5" y="307.5">«include»</text></g></g><g transform="translate(-46,-46) scale(1,1)"><path fill="none" stroke="#000000" d="M 346 284 L 378 455" stroke-miterlimit="10" stroke-dasharray="3"/></g><g transform="translate(-46,-46) scale(1,1)"><path fill="none" stroke="#000000" d="M 371.99297111308925 445.78503369773824 L 378 455 L 380.26835430001677 444.2364239785471" stroke-miterlimit="10"/></g><g transform="translate(-46,-46) scale(1,1)"><g><path fill="none" stroke="none"/><text fill="#000000" stroke="none" font-family="Arial" font-size="14px" font-style="normal" font-weight="normal" text-decoration="none" x="368.5" y="372.5">«include»</text></g></g><g transform="translate(-46,-46) scale(1,1)"><path fill="none" stroke="#000000" d="M 370 284 L 494 367" stroke-miterlimit="10" stroke-dasharray="3"/></g><g transform="translate(-46,-46) scale(1,1)"><path fill="none" stroke="#000000" d="M 483.21310955931636 364.84523908038784 L 494 367 L 487.8961626795698 357.8488705633827" stroke-miterlimit="10"/></g><g transform="translate(-46,-46) scale(1,1)"><g><path fill="none" stroke="none"/><text fill="#000000" stroke="none" font-family="Arial" font-size="14px" font-style="normal" font-weight="normal" text-decoration="none" x="438.5" y="323.5">«include»</text></g></g><g transform="translate(-46,-46) scale(1,1)"><path fill="#ffffff" stroke="none" d="M 503.82072727272725 177.68 C 503.82072727272725 172.886167936 507.70656959767274 169 512.5 169 C 517.2934304023273 169 521.1792727272727 172.886167936 521.1792727272727 177.68 C 521.1792727272727 182.47383206400002 517.2934304023273 186.36 512.5 186.36 C 507.70656959767274 186.36 503.82072727272725 182.47383206400002 503.82072727272725 177.68 Z"/></g><g transform="translate(-46,-46) scale(1,1)"><path fill="none" stroke="#000000" d="M 503.82072727272725 177.68 C 503.82072727272725 172.886167936 507.70656959767274 169 512.5 169 C 517.2934304023273 169 521.1792727272727 172.886167936 521.1792727272727 177.68 C 521.1792727272727 182.47383206400002 517.2934304023273 186.36 512.5 186.36 C 507.70656959767274 186.36 503.82072727272725 182.47383206400002 503.82072727272725 177.68 Z" stroke-miterlimit="10"/></g><g transform="translate(-46,-46) scale(1,1)"><path fill="none" stroke="#000000" d="M 512.5 186.36 L 512.5 203.64" stroke-miterlimit="10"/></g><g transform="translate(-46,-46) scale(1,1)"><path fill="none" stroke="#000000" d="M 503.31018181818183 192.84 L 521.6898181818182 192.84" stroke-miterlimit="10"/></g><g transform="translate(-46,-46) scale(1,1)"><path fill="none" stroke="#000000" d="M 512.5 203.64 L 499.73636363636365 221" stroke-miterlimit="10"/></g><g transform="translate(-46,-46) scale(1,1)"><path fill="none" stroke="#000000" d="M 512.5 203.64 L 525.2636363636364 221" stroke-miterlimit="10"/></g><g transform="translate(-46,-46) scale(1,1)"><g><path fill="none" stroke="none"/><text fill="#000000" stroke="none" font-family="Arial" font-size="14px" font-style="normal" font-weight="bold" text-decoration="none" x="484.5" y="242.5">部门主管</text></g></g><g transform="translate(-46,-46) scale(1,1)"><path fill="none" stroke="#000000" d="M 479 197 L 360 156" stroke-miterlimit="10"/></g><g transform="translate(-46,-46) scale(1,1)"><path fill="#FFFFFF" stroke="none" d="M 381.95921755268665 154.66105845020084 L 360 156 L 376.4742862905308 170.58073699157998"/></g><g transform="translate(-46,-46) scale(1,1)"><path fill="none" stroke="#000000" d="M 381.95921755268665 154.66105845020084 L 360 156 L 376.4742862905308 170.58073699157998 L 381.95921755268665 154.66105845020084" stroke-miterlimit="10"/></g><g transform="translate(-46,-46) scale(1,1)"><path fill="none" stroke="#000000" d="M 546 197 L 623 172" stroke-miterlimit="10"/></g><g transform="translate(-46,-46) scale(1,1)"><path fill="none" stroke="#000000" d="M 614.6339554029231 179.14207937506436 L 623 172 L 612.0341003758173 171.13452589157842" stroke-miterlimit="10"/></g><g transform="translate(-46,-46) scale(1,1)"><path fill="#ffffff" stroke="none" d="M 95.82072727272727 417.68 C 95.82072727272727 412.886167936 99.70656959767273 409 104.5 409 C 109.29343040232727 409 113.17927272727273 412.886167936 113.17927272727273 417.68 C 113.17927272727273 422.473832064 109.29343040232727 426.36 104.5 426.36 C 99.70656959767273 426.36 95.82072727272727 422.473832064 95.82072727272727 417.68 Z"/></g><g transform="translate(-46,-46) scale(1,1)"><path fill="none" stroke="#000000" d="M 95.82072727272727 417.68 C 95.82072727272727 412.886167936 99.70656959767273 409 104.5 409 C 109.29343040232727 409 113.17927272727273 412.886167936 113.17927272727273 417.68 C 113.17927272727273 422.473832064 109.29343040232727 426.36 104.5 426.36 C 99.70656959767273 426.36 95.82072727272727 422.473832064 95.82072727272727 417.68 Z" stroke-miterlimit="10"/></g><g transform="translate(-46,-46) scale(1,1)"><path fill="none" stroke="#000000" d="M 104.5 426.36 L 104.5 443.64" stroke-miterlimit="10"/></g><g transform="translate(-46,-46) scale(1,1)"><path fill="none" stroke="#000000" d="M 95.31018181818182 432.84 L 113.68981818181818 432.84" stroke-miterlimit="10"/></g><g transform="translate(-46,-46) scale(1,1)"><path fill="none" stroke="#000000" d="M 104.5 443.64 L 91.73636363636363 461" stroke-miterlimit="10"/></g><g transform="translate(-46,-46) scale(1,1)"><path fill="none" stroke="#000000" d="M 104.5 443.64 L 117.26363636363637 461" stroke-miterlimit="10"/></g><g transform="translate(-46,-46) scale(1,1)"><g><path fill="none" stroke="none"/><text fill="#000000" stroke="none" font-family="Arial" font-size="14px" font-style="normal" font-weight="bold" text-decoration="none" x="76.5" y="482.5">智能终端</text></g></g><g transform="translate(-46,-46) scale(1,1)"><path fill="#C0C0C0" stroke="none" d="M 215 400.5 C 215 390.835016 238.9527632 383 268.5 383 C 298.0472368 383 322 390.835016 322 400.5 C 322 410.164984 298.0472368 418 268.5 418 C 238.9527632 418 215 410.164984 215 400.5 Z" opacity="0.2"/></g><g transform="translate(-46,-46) scale(1,1)"><path fill="#ffffff" stroke="none" d="M 208 393.5 C 208 383.835016 231.9527632 376 261.5 376 C 291.0472368 376 315 383.835016 315 393.5 C 315 403.164984 291.0472368 411 261.5 411 C 231.9527632 411 208 403.164984 208 393.5 Z"/></g><g transform="translate(-46,-46) scale(1,1)"><path fill="none" stroke="#000000" d="M 208 393.5 C 208 383.835016 231.9527632 376 261.5 376 C 291.0472368 376 315 383.835016 315 393.5 C 315 403.164984 291.0472368 411 261.5 411 C 231.9527632 411 208 403.164984 208 393.5 Z" stroke-miterlimit="10"/></g><g transform="translate(-46,-46) scale(1,1)"><g><path fill="none" stroke="none"/><text fill="#000000" stroke="none" font-family="Arial" font-size="14px" font-style="normal" font-weight="bold" text-decoration="none" x="233.5" y="401">智能推荐</text></g></g><g transform="translate(-46,-46) scale(1,1)"><path fill="none" stroke="#000000" d="M 106 407 L 108 348" stroke-miterlimit="10"/></g><g transform="translate(-46,-46) scale(1,1)"><path fill="none" stroke="#000000" d="M 111.86280157725551 358.29945454743853 L 108 348 L 103.44859903663905 358.01422734267186" stroke-miterlimit="10"/></g><g transform="translate(-46,-46) scale(1,1)"><path fill="none" stroke="#000000" d="M 272 375 L 330 284" stroke-miterlimit="10" stroke-dasharray="3"/></g><g transform="translate(-46,-46) scale(1,1)"><path fill="none" stroke="#000000" d="M 328.0876174690825 294.83248785161754 L 330 284 L 320.9880157271659 290.3074669611652" stroke-miterlimit="10"/></g><g transform="translate(-46,-46) scale(1,1)"><g><path fill="none" stroke="none"/><text fill="#000000" stroke="none" font-family="Arial" font-size="14px" font-style="normal" font-weight="normal" text-decoration="none" x="223.5" y="356.5">«extend»</text></g></g><g transform="translate(-46,-46) scale(1,1)"><path fill="none" stroke="#000000" d="M 290 412 L 354 455" stroke-miterlimit="10" stroke-dasharray="3"/></g><g transform="translate(-46,-46) scale(1,1)"><path fill="none" stroke="#000000" d="M 343.21687163401583 452.82649070793167 L 354 455 L 347.9120799694011 445.8382736506141" stroke-miterlimit="10"/></g><g transform="translate(-46,-46) scale(1,1)"><g><path fill="none" stroke="none"/><text fill="#000000" stroke="none" font-family="Arial" font-size="14px" font-style="normal" font-weight="normal" text-decoration="none" x="254.5" y="451.5">«include»</text></g></g></g></svg>