<svg version="1.1" xmlns="http://www.w3.org/2000/svg" xmlns:xlink="http://www.w3.org/1999/xlink" width="702.919921875" height="353"><defs/><g><g transform="translate(-126,-101) scale(1,1)"><rect fill="#C0C0C0" stroke="none" x="487" y="223" width="62.015625" height="44" opacity="0.2"/></g><g transform="translate(-126,-101) scale(1,1)"><rect fill="#ffffff" stroke="none" x="480" y="216" width="62.015625" height="44"/></g><g transform="translate(-126,-101) scale(1,1)"><path fill="none" stroke="#000000" d="M 480 216 L 542.015625 216 L 542.015625 260 L 480 260 L 480 216 Z Z" stroke-miterlimit="10"/></g><g transform="translate(-126,-101) scale(1,1)"><path fill="none" stroke="#000000" d="M 480 241 L 542.015625 241" stroke-miterlimit="10"/></g><g transform="translate(-126,-101) scale(1,1)"><path fill="none" stroke="#000000" d="M 480 251 L 542.015625 251" stroke-miterlimit="10"/></g><g transform="translate(-126,-101) scale(1,1)"><g><path fill="none" stroke="none"/><text fill="#000000" stroke="none" font-family="Arial" font-size="13px" font-style="normal" font-weight="bold" text-decoration="none" x="485.0078125" y="235.5">会议申请</text></g></g><g transform="translate(-126,-101) scale(1,1)"><rect fill="#C0C0C0" stroke="none" x="631" y="319" width="50.919921875" height="44" opacity="0.2"/></g><g transform="translate(-126,-101) scale(1,1)"><rect fill="#ffffff" stroke="none" x="624" y="312" width="50.919921875" height="44"/></g><g transform="translate(-126,-101) scale(1,1)"><path fill="none" stroke="#000000" d="M 624 312 L 674.919921875 312 L 674.919921875 356 L 624 356 L 624 312 Z Z" stroke-miterlimit="10"/></g><g transform="translate(-126,-101) scale(1,1)"><path fill="none" stroke="#000000" d="M 624 337 L 674.919921875 337" stroke-miterlimit="10"/></g><g transform="translate(-126,-101) scale(1,1)"><path fill="none" stroke="#000000" d="M 624 347 L 674.919921875 347" stroke-miterlimit="10"/></g><g transform="translate(-126,-101) scale(1,1)"><g><path fill="none" stroke="none"/><text fill="#000000" stroke="none" font-family="Arial" font-size="13px" font-style="normal" font-weight="bold" text-decoration="none" x="629.9599609375" y="331.5">会议室</text></g></g><g transform="translate(-126,-101) scale(1,1)"><rect fill="#C0C0C0" stroke="none" x="287" y="223" width="50.919921875" height="44" opacity="0.2"/></g><g transform="translate(-126,-101) scale(1,1)"><rect fill="#ffffff" stroke="none" x="280" y="216" width="50.919921875" height="44"/></g><g transform="translate(-126,-101) scale(1,1)"><path fill="none" stroke="#000000" d="M 280 216 L 330.919921875 216 L 330.919921875 260 L 280 260 L 280 216 Z Z" stroke-miterlimit="10"/></g><g transform="translate(-126,-101) scale(1,1)"><path fill="none" stroke="#000000" d="M 280 241 L 330.919921875 241" stroke-miterlimit="10"/></g><g transform="translate(-126,-101) scale(1,1)"><path fill="none" stroke="#000000" d="M 280 251 L 330.919921875 251" stroke-miterlimit="10"/></g><g transform="translate(-126,-101) scale(1,1)"><g><path fill="none" stroke="none"/><text fill="#000000" stroke="none" font-family="Arial" font-size="13px" font-style="normal" font-weight="bold" text-decoration="none" x="292.4599609375" y="235.5">用户</text></g></g><g transform="translate(-126,-101) scale(1,1)"><rect fill="#C0C0C0" stroke="none" x="143" y="223" width="50.919921875" height="44" opacity="0.2"/></g><g transform="translate(-126,-101) scale(1,1)"><rect fill="#ffffff" stroke="none" x="136" y="216" width="50.919921875" height="44"/></g><g transform="translate(-126,-101) scale(1,1)"><path fill="none" stroke="#000000" d="M 136 216 L 186.919921875 216 L 186.919921875 260 L 136 260 L 136 216 Z Z" stroke-miterlimit="10"/></g><g transform="translate(-126,-101) scale(1,1)"><path fill="none" stroke="#000000" d="M 136 241 L 186.919921875 241" stroke-miterlimit="10"/></g><g transform="translate(-126,-101) scale(1,1)"><path fill="none" stroke="#000000" d="M 136 251 L 186.919921875 251" stroke-miterlimit="10"/></g><g transform="translate(-126,-101) scale(1,1)"><g><path fill="none" stroke="none"/><text fill="#000000" stroke="none" font-family="Arial" font-size="13px" font-style="normal" font-weight="bold" text-decoration="none" x="141.9599609375" y="235.5">用户组</text></g></g><g transform="translate(-126,-101) scale(1,1)"><rect fill="#C0C0C0" stroke="none" x="775" y="319" width="50.919921875" height="44" opacity="0.2"/></g><g transform="translate(-126,-101) scale(1,1)"><rect fill="#ffffff" stroke="none" x="768" y="312" width="50.919921875" height="44"/></g><g transform="translate(-126,-101) scale(1,1)"><path fill="none" stroke="#000000" d="M 768 312 L 818.919921875 312 L 818.919921875 356 L 768 356 L 768 312 Z Z" stroke-miterlimit="10"/></g><g transform="translate(-126,-101) scale(1,1)"><path fill="none" stroke="#000000" d="M 768 337 L 818.919921875 337" stroke-miterlimit="10"/></g><g transform="translate(-126,-101) scale(1,1)"><path fill="none" stroke="#000000" d="M 768 347 L 818.919921875 347" stroke-miterlimit="10"/></g><g transform="translate(-126,-101) scale(1,1)"><g><path fill="none" stroke="none"/><text fill="#000000" stroke="none" font-family="Arial" font-size="13px" font-style="normal" font-weight="bold" text-decoration="none" x="780.4599609375" y="331.5">楼宇</text></g></g><g transform="translate(-126,-101) scale(1,1)"><path fill="none" stroke="#000000" d="M 279 238 L 188 238" stroke-miterlimit="10"/></g><g transform="translate(-126,-101) scale(1,1)"><path fill="#FFFFFF" stroke="none" d="M 198.16267485762415 233.790482243984 L 188 238 L 198.16267485762415 242.209517756016 L 210 238"/></g><g transform="translate(-126,-101) scale(1,1)"><path fill="none" stroke="#000000" d="M 198.16267485762415 233.790482243984 L 188 238 L 198.16267485762415 242.209517756016 L 210 238 L 198.16267485762415 233.790482243984" stroke-miterlimit="10"/></g><g transform="translate(-126,-101) scale(1,1)"><g><path fill="none" stroke="none"/><text fill="#000000" stroke="none" font-family="Arial" font-size="13px" font-style="normal" font-weight="normal" text-decoration="none" x="219.5" y="228.5">+属于</text></g></g><g transform="translate(-126,-101) scale(1,1)"><path fill="none" stroke="#000000" d="M 332 238 L 479 238" stroke-miterlimit="10"/></g><g transform="translate(-126,-101) scale(1,1)"><path fill="none" stroke="#000000" d="M 468.83732514237585 242.209517756016 L 479 238 L 468.83732514237585 233.790482243984" stroke-miterlimit="10"/></g><g transform="translate(-126,-101) scale(1,1)"><g><path fill="none" stroke="none"/><text fill="#000000" stroke="none" font-family="Arial" font-size="13px" font-style="normal" font-weight="normal" text-decoration="none" x="343.5" y="227.5">+提出</text></g></g><g transform="translate(-126,-101) scale(1,1)"><rect fill="#C0C0C0" stroke="none" x="663" y="223" width="62.015625" height="44" opacity="0.2"/></g><g transform="translate(-126,-101) scale(1,1)"><rect fill="#ffffff" stroke="none" x="656" y="216" width="62.015625" height="44"/></g><g transform="translate(-126,-101) scale(1,1)"><path fill="none" stroke="#000000" d="M 656 216 L 718.015625 216 L 718.015625 260 L 656 260 L 656 216 Z Z" stroke-miterlimit="10"/></g><g transform="translate(-126,-101) scale(1,1)"><path fill="none" stroke="#000000" d="M 656 241 L 718.015625 241" stroke-miterlimit="10"/></g><g transform="translate(-126,-101) scale(1,1)"><path fill="none" stroke="#000000" d="M 656 251 L 718.015625 251" stroke-miterlimit="10"/></g><g transform="translate(-126,-101) scale(1,1)"><g><path fill="none" stroke="none"/><text fill="#000000" stroke="none" font-family="Arial" font-size="13px" font-style="normal" font-weight="bold" text-decoration="none" x="661.0078125" y="235.5">楼宇主管</text></g></g><g transform="translate(-126,-101) scale(1,1)"><path fill="none" stroke="#000000" d="M 676 334 L 767 334" stroke-miterlimit="10"/></g><g transform="translate(-126,-101) scale(1,1)"><g><path fill="none" stroke="none"/><text fill="#000000" stroke="none" font-family="Arial" font-size="13px" font-style="normal" font-weight="normal" text-decoration="none" x="695.5" y="324.5">+位于</text></g></g><g transform="translate(-126,-101) scale(1,1)"><path fill="none" stroke="#000000" d="M 768 311 L 712 261" stroke-miterlimit="10"/></g><g transform="translate(-126,-101) scale(1,1)"><g><path fill="none" stroke="none"/><text fill="#000000" stroke="none" font-family="Arial" font-size="13px" font-style="normal" font-weight="normal" text-decoration="none" x="742.5" y="283.5">+管理</text></g></g><g transform="translate(-126,-101) scale(1,1)"><rect fill="#C0C0C0" stroke="none" x="487" y="319" width="62.015625" height="44" opacity="0.2"/></g><g transform="translate(-126,-101) scale(1,1)"><rect fill="#ffffff" stroke="none" x="480" y="312" width="62.015625" height="44"/></g><g transform="translate(-126,-101) scale(1,1)"><path fill="none" stroke="#000000" d="M 480 312 L 542.015625 312 L 542.015625 356 L 480 356 L 480 312 Z Z" stroke-miterlimit="10"/></g><g transform="translate(-126,-101) scale(1,1)"><path fill="none" stroke="#000000" d="M 480 337 L 542.015625 337" stroke-miterlimit="10"/></g><g transform="translate(-126,-101) scale(1,1)"><path fill="none" stroke="#000000" d="M 480 347 L 542.015625 347" stroke-miterlimit="10"/></g><g transform="translate(-126,-101) scale(1,1)"><g><path fill="none" stroke="none"/><text fill="#000000" stroke="none" font-family="Arial" font-size="13px" font-style="normal" font-weight="bold" text-decoration="none" x="498.0078125" y="331.5">会议</text></g></g><g transform="translate(-126,-101) scale(1,1)"><path fill="none" stroke="#000000" d="M 511 261 L 511 311" stroke-miterlimit="10"/></g><g transform="translate(-126,-101) scale(1,1)"><path fill="none" stroke="#000000" d="M 506.790482243984 300.83732514237585 L 511 311 L 515.209517756016 300.83732514237585" stroke-miterlimit="10"/></g><g transform="translate(-126,-101) scale(1,1)"><g><path fill="none" stroke="none"/><text fill="#000000" stroke="none" font-family="Arial" font-size="13px" font-style="normal" font-weight="normal" text-decoration="none" x="519.5" y="291.5">+对应</text></g></g><g transform="translate(-126,-101) scale(1,1)"><rect fill="#C0C0C0" stroke="none" x="351" y="319" width="72" height="44" opacity="0.2"/></g><g transform="translate(-126,-101) scale(1,1)"><rect fill="#ffffff" stroke="none" x="344" y="312" width="72" height="44"/></g><g transform="translate(-126,-101) scale(1,1)"><path fill="none" stroke="#000000" d="M 344 312 L 416 312 L 416 356 L 344 356 L 344 312 Z Z" stroke-miterlimit="10"/></g><g transform="translate(-126,-101) scale(1,1)"><path fill="none" stroke="#000000" d="M 344 337 L 416 337" stroke-miterlimit="10"/></g><g transform="translate(-126,-101) scale(1,1)"><path fill="none" stroke="#000000" d="M 344 347 L 416 347" stroke-miterlimit="10"/></g><g transform="translate(-126,-101) scale(1,1)"><g><path fill="none" stroke="none"/><text fill="#000000" stroke="none" font-family="Arial" font-size="13px" font-style="normal" font-weight="bold" text-decoration="none" x="354" y="331.5">人像核实</text></g></g><g transform="translate(-126,-101) scale(1,1)"><path fill="none" stroke="#000000" d="M 332 251 L 479 319" stroke-miterlimit="10"/></g><g transform="translate(-126,-101) scale(1,1)"><g><path fill="none" stroke="none"/><text fill="#000000" stroke="none" font-family="Arial" font-size="13px" font-style="normal" font-weight="normal" text-decoration="none" x="394.5" y="277.5">+出席</text></g></g><g transform="translate(-126,-101) scale(1,1)"><path fill="none" stroke="#000000" d="M 392 311 L 405 285" stroke-miterlimit="10" stroke-dasharray="3"/></g><g transform="translate(-126,-101) scale(1,1)"><path fill="none" stroke="#000000" d="M 543 334 L 623 334" stroke-miterlimit="10"/></g><g transform="translate(-126,-101) scale(1,1)"><g><path fill="none" stroke="none"/><text fill="#000000" stroke="none" font-family="Arial" font-size="13px" font-style="normal" font-weight="normal" text-decoration="none" x="566.5" y="325.5">+位于</text></g></g><g transform="translate(-126,-101) scale(1,1)"><path fill="none" stroke="#000000" d="M 655 238 L 543 238" stroke-miterlimit="10"/></g><g transform="translate(-126,-101) scale(1,1)"><path fill="none" stroke="#000000" d="M 553.1626748576241 233.790482243984 L 543 238 L 553.1626748576241 242.209517756016" stroke-miterlimit="10"/></g><g transform="translate(-126,-101) scale(1,1)"><g><path fill="none" stroke="none"/><text fill="#000000" stroke="none" font-family="Arial" font-size="13px" font-style="normal" font-weight="normal" text-decoration="none" x="568.5" y="259.5">+协调管理</text></g></g><g transform="translate(-126,-101) scale(1,1)"><rect fill="#C0C0C0" stroke="none" x="623" y="407" width="62.015625" height="44" opacity="0.2"/></g><g transform="translate(-126,-101) scale(1,1)"><rect fill="#ffffff" stroke="none" x="616" y="400" width="62.015625" height="44"/></g><g transform="translate(-126,-101) scale(1,1)"><path fill="none" stroke="#000000" d="M 616 400 L 678.015625 400 L 678.015625 444 L 616 444 L 616 400 Z Z" stroke-miterlimit="10"/></g><g transform="translate(-126,-101) scale(1,1)"><path fill="none" stroke="#000000" d="M 616 425 L 678.015625 425" stroke-miterlimit="10"/></g><g transform="translate(-126,-101) scale(1,1)"><path fill="none" stroke="#000000" d="M 616 435 L 678.015625 435" stroke-miterlimit="10"/></g><g transform="translate(-126,-101) scale(1,1)"><g><path fill="none" stroke="none"/><text fill="#000000" stroke="none" font-family="Arial" font-size="13px" font-style="normal" font-weight="bold" text-decoration="none" x="627.5078125" y="419.5">显示屏</text></g></g><g transform="translate(-126,-101) scale(1,1)"><path fill="none" stroke="#000000" d="M 648 357 L 648 399" stroke-miterlimit="10"/></g><g transform="translate(-126,-101) scale(1,1)"><g><path fill="none" stroke="none"/><text fill="#000000" stroke="none" font-family="Arial" font-size="13px" font-style="normal" font-weight="normal" text-decoration="none" x="655.5" y="380.5">+配备</text></g></g><g transform="translate(-126,-101) scale(1,1)"><rect fill="#C0C0C0" stroke="none" x="279" y="119" width="62.015625" height="44" opacity="0.2"/></g><g transform="translate(-126,-101) scale(1,1)"><rect fill="#ffffff" stroke="none" x="272" y="112" width="62.015625" height="44"/></g><g transform="translate(-126,-101) scale(1,1)"><path fill="none" stroke="#000000" d="M 272 112 L 334.015625 112 L 334.015625 156 L 272 156 L 272 112 Z Z" stroke-miterlimit="10"/></g><g transform="translate(-126,-101) scale(1,1)"><path fill="none" stroke="#000000" d="M 272 137 L 334.015625 137" stroke-miterlimit="10"/></g><g transform="translate(-126,-101) scale(1,1)"><path fill="none" stroke="#000000" d="M 272 147 L 334.015625 147" stroke-miterlimit="10"/></g><g transform="translate(-126,-101) scale(1,1)"><g><path fill="none" stroke="none"/><text fill="#000000" stroke="none" font-family="Arial" font-size="13px" font-style="normal" font-weight="bold" text-decoration="none" x="277.0078125" y="131.5">部门主管</text></g></g><g transform="translate(-126,-101) scale(1,1)"><path fill="none" stroke="#000000" d="M 303 157 L 305 215" stroke-miterlimit="10"/></g><g transform="translate(-126,-101) scale(1,1)"><path fill="#FFFFFF" stroke="none" d="M 295.8855075920775 194.97686267974166 L 305 215 L 312.71357679106876 194.39658443150057"/></g><g transform="translate(-126,-101) scale(1,1)"><path fill="none" stroke="#000000" d="M 295.8855075920775 194.97686267974166 L 305 215 L 312.71357679106876 194.39658443150057 L 295.8855075920775 194.97686267974166" stroke-miterlimit="10"/></g><g transform="translate(-126,-101) scale(1,1)"><path fill="none" stroke="#000000" d="M 335 134 L 512 136 L 511 215" stroke-miterlimit="10"/></g><g transform="translate(-126,-101) scale(1,1)"><g><path fill="none" stroke="none"/><text fill="#000000" stroke="none" font-family="Arial" font-size="13px" font-style="normal" font-weight="normal" text-decoration="none" x="423.5" y="123.5">+协调管理</text></g></g><g transform="translate(-126,-101) scale(1,1)"><rect fill="#C0C0C0" stroke="none" x="143" y="295" width="65" height="45" opacity="0.2"/></g><g transform="translate(-126,-101) scale(1,1)"><rect fill="#ffffff" stroke="none" x="136" y="288" width="65" height="45"/></g><g transform="translate(-126,-101) scale(1,1)"><path fill="none" stroke="#000000" d="M 136 288 L 201 288 L 201 333 L 136 333 L 136 288 Z Z" stroke-miterlimit="10"/></g><g transform="translate(-126,-101) scale(1,1)"><path fill="none" stroke="#000000" d="M 136 313 L 201 313" stroke-miterlimit="10"/></g><g transform="translate(-126,-101) scale(1,1)"><path fill="none" stroke="#000000" d="M 136 323 L 201 323" stroke-miterlimit="10"/></g><g transform="translate(-126,-101) scale(1,1)"><g><path fill="none" stroke="none"/><text fill="#000000" stroke="none" font-family="Arial" font-size="13px" font-style="normal" font-weight="bold" text-decoration="none" x="149" y="307.5">申请者</text></g></g><g transform="translate(-126,-101) scale(1,1)"><rect fill="#C0C0C0" stroke="none" x="231" y="295" width="79" height="45" opacity="0.2"/></g><g transform="translate(-126,-101) scale(1,1)"><rect fill="#ffffff" stroke="none" x="224" y="288" width="79" height="45"/></g><g transform="translate(-126,-101) scale(1,1)"><path fill="none" stroke="#000000" d="M 224 288 L 303 288 L 303 333 L 224 333 L 224 288 Z Z" stroke-miterlimit="10"/></g><g transform="translate(-126,-101) scale(1,1)"><path fill="none" stroke="#000000" d="M 224 313 L 303 313" stroke-miterlimit="10"/></g><g transform="translate(-126,-101) scale(1,1)"><path fill="none" stroke="#000000" d="M 224 323 L 303 323" stroke-miterlimit="10"/></g><g transform="translate(-126,-101) scale(1,1)"><g><path fill="none" stroke="none"/><text fill="#000000" stroke="none" font-family="Arial" font-size="13px" font-style="normal" font-weight="bold" text-decoration="none" x="231" y="307.5">主要参与者</text></g></g><g transform="translate(-126,-101) scale(1,1)"><path fill="none" stroke="#000000" d="M 202 292 L 279 252" stroke-miterlimit="10"/></g><g transform="translate(-126,-101) scale(1,1)"><path fill="#FFFFFF" stroke="none" d="M 264.84426424727957 268.8408772128756 L 279 252 L 257.0820847782122 253.89868173492087"/></g><g transform="translate(-126,-101) scale(1,1)"><path fill="none" stroke="#000000" d="M 264.84426424727957 268.8408772128756 L 279 252 L 257.0820847782122 253.89868173492087 L 264.84426424727957 268.8408772128756" stroke-miterlimit="10"/></g><g transform="translate(-126,-101) scale(1,1)"><path fill="none" stroke="#000000" d="M 276 287 L 292 261" stroke-miterlimit="10"/></g><g transform="translate(-126,-101) scale(1,1)"><path fill="#FFFFFF" stroke="none" d="M 288.517678150964 282.72264796335213 L 292 261 L 274.1773949260581 273.897858286487"/></g><g transform="translate(-126,-101) scale(1,1)"><path fill="none" stroke="#000000" d="M 288.517678150964 282.72264796335213 L 292 261 L 274.1773949260581 273.897858286487 L 288.517678150964 282.72264796335213" stroke-miterlimit="10"/></g><g transform="translate(-126,-101) scale(1,1)"><rect fill="#C0C0C0" stroke="none" x="383" y="167" width="93" height="45" opacity="0.2"/></g><g transform="translate(-126,-101) scale(1,1)"><rect fill="#ffffff" stroke="none" x="376" y="160" width="93" height="45"/></g><g transform="translate(-126,-101) scale(1,1)"><path fill="none" stroke="#000000" d="M 376 160 L 469 160 L 469 205 L 376 205 L 376 160 Z Z" stroke-miterlimit="10"/></g><g transform="translate(-126,-101) scale(1,1)"><path fill="none" stroke="#000000" d="M 376 185 L 469 185" stroke-miterlimit="10"/></g><g transform="translate(-126,-101) scale(1,1)"><path fill="none" stroke="#000000" d="M 376 195 L 469 195" stroke-miterlimit="10"/></g><g transform="translate(-126,-101) scale(1,1)"><g><path fill="none" stroke="none"/><text fill="#000000" stroke="none" font-family="Arial" font-size="13px" font-style="normal" font-weight="bold" text-decoration="none" x="383.5" y="179.5">智能推荐系统</text></g></g><g transform="translate(-126,-101) scale(1,1)"><path fill="none" stroke="#000000" d="M 332 238 L 479 238" stroke-miterlimit="10"/></g><g transform="translate(-126,-101) scale(1,1)"><path fill="none" stroke="#000000" d="M 415 206 L 405 238" stroke-miterlimit="10" stroke-dasharray="3"/></g></g></svg>