<svg version="1.1" xmlns="http://www.w3.org/2000/svg" xmlns:xlink="http://www.w3.org/1999/xlink" width="452" height="311"><defs/><g><g transform="translate(-182,-110) scale(1,1)"><path fill="#C0C0C0" stroke="none" d="M 391 264.5 C 391 254.835016 416.0720512 247 447 247 C 477.9279488 247 503 254.835016 503 264.5 C 503 274.164984 477.9279488 282 447 282 C 416.0720512 282 391 274.164984 391 264.5 Z" opacity="0.2"/></g><g transform="translate(-182,-110) scale(1,1)"><path fill="#ffffff" stroke="none" d="M 384 257.5 C 384 247.835016 409.0720512 240 440 240 C 470.9279488 240 496 247.835016 496 257.5 C 496 267.164984 470.9279488 275 440 275 C 409.0720512 275 384 267.164984 384 257.5 Z"/></g><g transform="translate(-182,-110) scale(1,1)"><path fill="none" stroke="#000000" d="M 384 257.5 C 384 247.835016 409.0720512 240 440 240 C 470.9279488 240 496 247.835016 496 257.5 C 496 267.164984 470.9279488 275 440 275 C 409.0720512 275 384 267.164984 384 257.5 Z" stroke-miterlimit="10"/></g><g transform="translate(-182,-110) scale(1,1)"><g><path fill="none" stroke="none"/><text fill="#000000" stroke="none" font-family="Arial" font-size="14px" font-style="normal" font-weight="bold" text-decoration="none" x="405" y="265">会议室管理</text></g></g><g transform="translate(-182,-110) scale(1,1)"><path fill="#ffffff" stroke="none" d="M 439.82072727272725 129.68 C 439.82072727272725 124.886167936 443.70656959767274 121 448.5 121 C 453.29343040232726 121 457.17927272727275 124.886167936 457.17927272727275 129.68 C 457.17927272727275 134.47383206400002 453.29343040232726 138.36 448.5 138.36 C 443.70656959767274 138.36 439.82072727272725 134.47383206400002 439.82072727272725 129.68 Z"/></g><g transform="translate(-182,-110) scale(1,1)"><path fill="none" stroke="#000000" d="M 439.82072727272725 129.68 C 439.82072727272725 124.886167936 443.70656959767274 121 448.5 121 C 453.29343040232726 121 457.17927272727275 124.886167936 457.17927272727275 129.68 C 457.17927272727275 134.47383206400002 453.29343040232726 138.36 448.5 138.36 C 443.70656959767274 138.36 439.82072727272725 134.47383206400002 439.82072727272725 129.68 Z" stroke-miterlimit="10"/></g><g transform="translate(-182,-110) scale(1,1)"><path fill="none" stroke="#000000" d="M 448.5 138.36 L 448.5 155.64" stroke-miterlimit="10"/></g><g transform="translate(-182,-110) scale(1,1)"><path fill="none" stroke="#000000" d="M 439.31018181818183 144.84 L 457.68981818181817 144.84" stroke-miterlimit="10"/></g><g transform="translate(-182,-110) scale(1,1)"><path fill="none" stroke="#000000" d="M 448.5 155.64 L 435.73636363636365 173" stroke-miterlimit="10"/></g><g transform="translate(-182,-110) scale(1,1)"><path fill="none" stroke="#000000" d="M 448.5 155.64 L 461.26363636363635 173" stroke-miterlimit="10"/></g><g transform="translate(-182,-110) scale(1,1)"><g><path fill="none" stroke="none"/><text fill="#000000" stroke="none" font-family="Arial" font-size="14px" font-style="normal" font-weight="bold" text-decoration="none" x="420.5" y="194.5">楼宇主管</text></g></g><g transform="translate(-182,-110) scale(1,1)"><path fill="none" stroke="#000000" d="M 445 201 L 441 239" stroke-miterlimit="10"/></g><g transform="translate(-182,-110) scale(1,1)"><path fill="none" stroke="#000000" d="M 437.87748906506994 228.4524919786121 L 441 239 L 446.2502657901247 229.3338368970389" stroke-miterlimit="10"/></g><g transform="translate(-182,-110) scale(1,1)"><path fill="#C0C0C0" stroke="none" d="M 199 312.5 C 199 302.835016 224.0720512 295 255 295 C 285.9279488 295 311 302.835016 311 312.5 C 311 322.164984 285.9279488 330 255 330 C 224.0720512 330 199 322.164984 199 312.5 Z" opacity="0.2"/></g><g transform="translate(-182,-110) scale(1,1)"><path fill="#ffffff" stroke="none" d="M 192 305.5 C 192 295.835016 217.0720512 288 248 288 C 278.9279488 288 304 295.835016 304 305.5 C 304 315.164984 278.9279488 323 248 323 C 217.0720512 323 192 315.164984 192 305.5 Z"/></g><g transform="translate(-182,-110) scale(1,1)"><path fill="none" stroke="#000000" d="M 192 305.5 C 192 295.835016 217.0720512 288 248 288 C 278.9279488 288 304 295.835016 304 305.5 C 304 315.164984 278.9279488 323 248 323 C 217.0720512 323 192 315.164984 192 305.5 Z" stroke-miterlimit="10"/></g><g transform="translate(-182,-110) scale(1,1)"><g><path fill="none" stroke="none"/><text fill="#000000" stroke="none" font-family="Arial" font-size="14px" font-style="normal" font-weight="bold" text-decoration="none" x="213" y="313">新增会议室</text></g></g><g transform="translate(-182,-110) scale(1,1)"><path fill="#C0C0C0" stroke="none" d="M 311 400.5 C 311 390.835016 344.8024976 383 386.5 383 C 428.1975024 383 462 390.835016 462 400.5 C 462 410.164984 428.1975024 418 386.5 418 C 344.8024976 418 311 410.164984 311 400.5 Z" opacity="0.2"/></g><g transform="translate(-182,-110) scale(1,1)"><path fill="#ffffff" stroke="none" d="M 304 393.5 C 304 383.835016 337.8024976 376 379.5 376 C 421.1975024 376 455 383.835016 455 393.5 C 455 403.164984 421.1975024 411 379.5 411 C 337.8024976 411 304 403.164984 304 393.5 Z"/></g><g transform="translate(-182,-110) scale(1,1)"><path fill="none" stroke="#000000" d="M 304 393.5 C 304 383.835016 337.8024976 376 379.5 376 C 421.1975024 376 455 383.835016 455 393.5 C 455 403.164984 421.1975024 411 379.5 411 C 337.8024976 411 304 403.164984 304 393.5 Z" stroke-miterlimit="10"/></g><g transform="translate(-182,-110) scale(1,1)"><g><path fill="none" stroke="none"/><text fill="#000000" stroke="none" font-family="Arial" font-size="14px" font-style="normal" font-weight="bold" text-decoration="none" x="330.5" y="401">会议室状态变更</text></g></g><g transform="translate(-182,-110) scale(1,1)"><path fill="#C0C0C0" stroke="none" d="M 519 360.5 C 519 350.835016 544.0720512 343 575 343 C 605.9279488 343 631 350.835016 631 360.5 C 631 370.164984 605.9279488 378 575 378 C 544.0720512 378 519 370.164984 519 360.5 Z" opacity="0.2"/></g><g transform="translate(-182,-110) scale(1,1)"><path fill="#ffffff" stroke="none" d="M 512 353.5 C 512 343.835016 537.0720512 336 568 336 C 598.9279488 336 624 343.835016 624 353.5 C 624 363.164984 598.9279488 371 568 371 C 537.0720512 371 512 363.164984 512 353.5 Z"/></g><g transform="translate(-182,-110) scale(1,1)"><path fill="none" stroke="#000000" d="M 512 353.5 C 512 343.835016 537.0720512 336 568 336 C 598.9279488 336 624 343.835016 624 353.5 C 624 363.164984 598.9279488 371 568 371 C 537.0720512 371 512 363.164984 512 353.5 Z" stroke-miterlimit="10"/></g><g transform="translate(-182,-110) scale(1,1)"><g><path fill="none" stroke="none"/><text fill="#000000" stroke="none" font-family="Arial" font-size="14px" font-style="normal" font-weight="bold" text-decoration="none" x="533" y="361">撤除会议室</text></g></g><g transform="translate(-182,-110) scale(1,1)"><path fill="none" stroke="#000000" d="M 383 271 L 305 291" stroke-miterlimit="10" stroke-dasharray="3"/></g><g transform="translate(-182,-110) scale(1,1)"><path fill="none" stroke="#000000" d="M 313.79867546982626 284.3982343288573 L 305 291 L 315.8897563640434 292.5534498163043" stroke-miterlimit="10"/></g><g transform="translate(-182,-110) scale(1,1)"><g><path fill="none" stroke="none"/><text fill="#000000" stroke="none" font-family="Arial" font-size="14px" font-style="normal" font-weight="normal" text-decoration="none" x="311.5" y="267.5">«include»</text></g></g><g transform="translate(-182,-110) scale(1,1)"><path fill="none" stroke="#000000" d="M 431 276 L 387 375" stroke-miterlimit="10" stroke-dasharray="3"/></g><g transform="translate(-182,-110) scale(1,1)"><path fill="none" stroke="#000000" d="M 387.28074723810596 364.0035832659772 L 387 375 L 394.9741591172449 367.4228774344834" stroke-miterlimit="10"/></g><g transform="translate(-182,-110) scale(1,1)"><g><path fill="none" stroke="none"/><text fill="#000000" stroke="none" font-family="Arial" font-size="14px" font-style="normal" font-weight="normal" text-decoration="none" x="406.5" y="343.5">«include»</text></g></g><g transform="translate(-182,-110) scale(1,1)"><path fill="none" stroke="#000000" d="M 465 276 L 544 335" stroke-miterlimit="10" stroke-dasharray="3"/></g><g transform="translate(-182,-110) scale(1,1)"><path fill="none" stroke="#000000" d="M 533.3386338863025 332.29162916318614 L 544 335 L 538.376383108971 325.54616833961313" stroke-miterlimit="10"/></g><g transform="translate(-182,-110) scale(1,1)"><g><path fill="none" stroke="none"/><text fill="#000000" stroke="none" font-family="Arial" font-size="14px" font-style="normal" font-weight="normal" text-decoration="none" x="503.5" y="300.5">«include»</text></g></g></g></svg>